<?xml version="1.0" encoding="UTF-8"?>
<svg xmlns="http://www.w3.org/2000/svg" xmlns:xlink="http://www.w3.org/1999/xlink" width="422.45pt" height="107.012pt" viewBox="0 0 422.45 107.012">
<defs>
<g>
<g id="glyph-0-0">
<path d="M 5.03125 -7.546875 C 4.375 -7.640625 4.125 -7.859375 3.015625 -7.859375 C 2.46875 -7.859375 1.765625 -7.703125 1.265625 -7.296875 C 0.828125 -6.9375 0.484375 -6.390625 0.484375 -5.796875 C 0.484375 -5.34375 0.609375 -4.765625 0.890625 -4.40625 C 1.4375 -3.671875 2.421875 -3.265625 2.9375 -2.90625 C 3.484375 -2.515625 4.03125 -2.046875 4.03125 -1.375 C 4.03125 -0.78125 3.515625 -0.375 2.78125 -0.375 C 1.984375 -0.375 1.15625 -1.046875 0.921875 -2.125 C 0.71875 -2.203125 0.515625 -2.140625 0.328125 -2.09375 C 0.328125 -1.1875 0.421875 -0.5625 0.546875 -0.125 C 1.234375 -0.125 1.265625 0.125 2.921875 0.125 C 3.640625 0.125 4.234375 -0.09375 4.71875 -0.53125 C 5.15625 -0.90625 5.53125 -1.453125 5.53125 -2.203125 C 5.53125 -2.828125 5.265625 -3.234375 4.90625 -3.640625 C 4.453125 -4.140625 3.78125 -4.515625 3.3125 -4.75 C 2.828125 -5 1.984375 -5.625 1.984375 -6.296875 C 1.984375 -6.96875 2.390625 -7.375 3 -7.375 C 4.015625 -7.375 4.34375 -6.453125 4.5625 -5.671875 C 4.734375 -5.625 5.03125 -5.625 5.15625 -5.71875 C 5.15625 -6.359375 5.109375 -6.84375 5.03125 -7.546875 Z M 5.03125 -7.546875 "/>
</g>
<g id="glyph-0-1">
<path d="M 2.109375 -3.28125 C 2.125 -3.703125 2.1875 -4.15625 2.359375 -4.40625 C 2.546875 -4.6875 2.875 -4.8125 3 -4.8125 C 3.328125 -4.8125 3.765625 -4.5 3.765625 -3.53125 C 3.765625 -3.46875 3.765625 -3.3125 3.734375 -3.28125 Z M 5.15625 -1.546875 C 4.65625 -1.046875 4.015625 -0.90625 3.5625 -0.90625 C 2.625 -0.90625 2.0625 -1.453125 2.0625 -2.625 C 2.0625 -2.703125 2.0625 -2.75 2.0625 -2.8125 L 4.9375 -2.8125 C 5.21875 -2.8125 5.28125 -3.015625 5.28125 -3.171875 C 5.28125 -4.203125 4.890625 -5.3125 3.125 -5.3125 C 1.875 -5.3125 0.4375 -4.203125 0.4375 -2.359375 C 0.4375 -1.671875 0.6875 -0.9375 1.203125 -0.484375 C 1.65625 -0.078125 2.25 0.125 3.09375 0.125 C 3.921875 0.125 4.734375 -0.296875 5.328125 -1.171875 C 5.328125 -1.328125 5.265625 -1.546875 5.15625 -1.546875 Z M 5.15625 -1.546875 "/>
</g>
<g id="glyph-0-2">
<path d="M 2.71875 -1.453125 L 2.71875 -3.859375 C 3.203125 -4.1875 3.6875 -4.421875 3.890625 -4.421875 C 4.375 -4.421875 4.734375 -4.203125 4.734375 -3.53125 L 4.734375 -1.53125 C 4.734375 -0.53125 4.546875 -0.421875 4.046875 -0.375 C 3.984375 -0.3125 3.984375 -0.046875 4.046875 0.03125 C 4.546875 0.015625 4.9375 0 5.515625 0 C 6.171875 0 6.6875 0.015625 7.203125 0.03125 C 7.28125 -0.046875 7.28125 -0.3125 7.203125 -0.375 C 6.484375 -0.421875 6.28125 -0.53125 6.28125 -1.53125 L 6.28125 -3.390625 C 6.28125 -4.703125 5.71875 -5.3125 4.703125 -5.3125 C 4.21875 -5.3125 3.375 -4.78125 2.71875 -4.328125 C 2.671875 -4.75 2.625 -5.109375 2.625 -5.109375 C 2.625 -5.25 2.515625 -5.3125 2.359375 -5.3125 C 1.90625 -5.1875 1.1875 -5.015625 0.375 -4.90625 C 0.34375 -4.84375 0.375 -4.609375 0.390625 -4.53125 C 1.046875 -4.46875 1.171875 -4.375 1.171875 -3.6875 L 1.171875 -1.453125 C 1.171875 -0.46875 1.046875 -0.4375 0.3125 -0.375 C 0.234375 -0.3125 0.234375 -0.046875 0.3125 0.03125 C 0.8125 0.015625 1.3125 0 1.953125 0 C 2.5 0 2.828125 0.015625 3.34375 0.03125 C 3.421875 -0.046875 3.421875 -0.3125 3.34375 -0.375 C 2.84375 -0.4375 2.71875 -0.46875 2.71875 -1.453125 Z M 2.71875 -1.453125 "/>
</g>
<g id="glyph-0-3">
<path d="M 0.578125 -1.75 C 0.625 -1.15625 0.6875 -0.59375 0.78125 -0.140625 C 1 -0.078125 1.765625 0.125 2.4375 0.125 C 3.359375 0.125 4.5 -0.375 4.5 -1.421875 C 4.5 -1.828125 4.40625 -2.15625 4.140625 -2.453125 C 3.796875 -2.828125 3.296875 -3.125 2.75 -3.375 C 2.265625 -3.578125 2.109375 -3.953125 2.109375 -4.296875 C 2.109375 -4.578125 2.328125 -4.8125 2.671875 -4.8125 C 3.09375 -4.8125 3.5 -4.421875 3.796875 -3.6875 C 4.015625 -3.65625 4.140625 -3.671875 4.265625 -3.75 C 4.265625 -4.1875 4.21875 -4.640625 4.109375 -5.015625 C 3.734375 -5.1875 3.4375 -5.3125 2.765625 -5.3125 C 2.140625 -5.3125 1.546875 -5.0625 1.15625 -4.6875 C 0.890625 -4.40625 0.75 -4.078125 0.75 -3.75 C 0.75 -3.390625 0.890625 -3.109375 1.125 -2.859375 C 1.5 -2.453125 2.140625 -2.03125 2.515625 -1.859375 C 2.984375 -1.65625 3.125 -1.21875 3.125 -0.9375 C 3.125 -0.546875 2.734375 -0.34375 2.421875 -0.34375 C 1.875 -0.34375 1.296875 -0.890625 1.046875 -1.765625 C 0.859375 -1.8125 0.765625 -1.796875 0.578125 -1.75 Z M 0.578125 -1.75 "/>
</g>
<g id="glyph-0-4">
<path d="M 3.109375 -4.8125 C 3.921875 -4.8125 4.46875 -3.84375 4.46875 -2.203125 C 4.46875 -0.765625 3.90625 -0.375 3.484375 -0.375 C 2.5 -0.375 2.109375 -1.859375 2.109375 -2.734375 C 2.109375 -3.84375 2.3125 -4.8125 3.109375 -4.8125 Z M 0.4375 -2.46875 C 0.4375 -0.90625 1.6875 0.125 3.28125 0.125 C 4.140625 0.125 4.84375 -0.125 5.328125 -0.5625 C 5.9375 -1.09375 6.140625 -1.90625 6.140625 -2.578125 C 6.140625 -4.140625 5.078125 -5.3125 3.296875 -5.3125 C 2.3125 -5.3125 1.5625 -4.953125 1.09375 -4.421875 C 0.640625 -3.890625 0.4375 -3.171875 0.4375 -2.46875 Z M 0.4375 -2.46875 "/>
</g>
<g id="glyph-0-5">
<path d="M 2.71875 -3.203125 C 2.71875 -3.640625 2.859375 -3.8125 3.015625 -4 C 3.109375 -4.109375 3.21875 -4.203125 3.390625 -4.203125 C 3.5 -4.203125 3.640625 -4.09375 3.734375 -3.96875 C 3.8125 -3.875 4.015625 -3.78125 4.296875 -3.78125 C 4.640625 -3.78125 4.96875 -4.140625 4.96875 -4.640625 C 4.96875 -4.953125 4.609375 -5.3125 4.1875 -5.3125 C 3.765625 -5.3125 3.3125 -4.953125 2.765625 -4.15625 L 2.71875 -4.15625 C 2.6875 -4.515625 2.625 -5.109375 2.625 -5.109375 C 2.625 -5.21875 2.515625 -5.3125 2.359375 -5.3125 C 1.796875 -5.15625 1.15625 -5 0.375 -4.90625 C 0.34375 -4.84375 0.375 -4.609375 0.390625 -4.546875 C 1.046875 -4.484375 1.171875 -4.375 1.171875 -3.6875 L 1.171875 -1.453125 C 1.171875 -0.46875 1.046875 -0.4375 0.3125 -0.375 C 0.234375 -0.3125 0.234375 -0.046875 0.3125 0.03125 C 0.8125 0.015625 1.3125 0 1.953125 0 C 2.578125 0 3.078125 0.015625 3.578125 0.03125 C 3.65625 -0.046875 3.65625 -0.3125 3.578125 -0.375 C 2.859375 -0.4375 2.71875 -0.46875 2.71875 -1.453125 Z M 2.71875 -3.203125 "/>
</g>
<g id="glyph-0-6">
<path d="M 4.75 0.125 C 5.90625 0.125 6.96875 -0.4375 7.78125 -1.5 C 7.71875 -1.609375 7.515625 -1.75 7.390625 -1.75 C 6.53125 -0.8125 5.5625 -0.5 4.734375 -0.5 C 3.34375 -0.5 2.25 -2.125 2.25 -4 C 2.25 -5.84375 3.203125 -7.375 4.625 -7.375 C 6.28125 -7.375 6.8125 -6.4375 7.125 -5.421875 C 7.265625 -5.359375 7.5 -5.40625 7.640625 -5.46875 C 7.578125 -6.09375 7.484375 -6.671875 7.375 -7.328125 C 6.765625 -7.390625 6.234375 -7.859375 4.75 -7.859375 C 2.421875 -7.859375 0.4375 -6.390625 0.4375 -3.765625 C 0.4375 -2.640625 0.9375 -1.328125 1.890625 -0.640625 C 2.65625 -0.078125 3.578125 0.125 4.75 0.125 Z M 4.75 0.125 "/>
</g>
<g id="glyph-0-7">
<path d="M 6.09375 -1.59375 L 6.09375 -3.65625 C 6.09375 -4.65625 6.125 -4.515625 6.125 -4.8125 C 6.125 -5.015625 6.078125 -5.140625 6 -5.21875 C 5.78125 -5.203125 5.546875 -5.1875 5.3125 -5.1875 C 4.984375 -5.1875 4.203125 -5.203125 3.734375 -5.21875 C 3.671875 -5.140625 3.671875 -4.875 3.734375 -4.8125 C 4.34375 -4.75 4.546875 -4.65625 4.546875 -3.65625 L 4.546875 -1.453125 C 4.546875 -1.328125 4.546875 -1.203125 4.546875 -1.09375 C 4.0625 -0.78125 3.671875 -0.765625 3.453125 -0.765625 C 2.96875 -0.765625 2.625 -0.828125 2.625 -1.65625 L 2.625 -3.65625 C 2.625 -4.65625 2.640625 -4.515625 2.640625 -4.8125 C 2.640625 -5.015625 2.59375 -5.140625 2.515625 -5.21875 C 2.3125 -5.203125 2.0625 -5.1875 1.84375 -5.1875 C 1.234375 -5.1875 0.78125 -5.203125 0.265625 -5.21875 C 0.1875 -5.140625 0.1875 -4.875 0.265625 -4.8125 C 0.8125 -4.78125 1.0625 -4.65625 1.0625 -3.65625 L 1.0625 -1.796875 C 1.0625 -0.53125 1.5625 0.125 2.59375 0.125 C 3.03125 0.125 3.890625 -0.234375 4.59375 -0.609375 C 4.609375 -0.3125 4.640625 -0.078125 4.640625 -0.078125 C 4.65625 0.0625 4.75 0.125 4.90625 0.125 C 5.359375 0 6.078125 -0.171875 6.890625 -0.28125 C 6.921875 -0.34375 6.890625 -0.578125 6.875 -0.65625 C 6.234375 -0.71875 6.09375 -0.90625 6.09375 -1.59375 Z M 6.09375 -1.59375 "/>
</g>
<g id="glyph-0-8">
<path d="M 4.09375 -4.8125 C 4.734375 -4.75 4.8125 -4.5625 4.546875 -3.953125 L 3.609375 -1.765625 C 3.5625 -1.65625 3.515625 -1.75 3.484375 -1.828125 L 2.71875 -3.953125 C 2.515625 -4.53125 2.359375 -4.75 3.09375 -4.8125 C 3.171875 -4.875 3.171875 -5.140625 3.09375 -5.21875 C 2.65625 -5.203125 2.171875 -5.1875 1.59375 -5.1875 C 1.171875 -5.1875 0.5625 -5.203125 0.125 -5.21875 C 0.046875 -5.140625 0.046875 -4.875 0.125 -4.8125 C 0.8125 -4.71875 0.84375 -4.484375 1.078125 -3.890625 L 2.640625 -0.109375 C 2.71875 0.078125 2.921875 0.140625 3.078125 0.140625 C 3.1875 0.140625 3.4375 0.125 3.53125 -0.125 L 5.171875 -3.875 C 5.421875 -4.40625 5.5625 -4.75 6.203125 -4.8125 C 6.28125 -4.875 6.28125 -5.140625 6.203125 -5.21875 C 5.9375 -5.203125 5.5625 -5.1875 5.296875 -5.1875 C 4.859375 -5.1875 4.40625 -5.203125 4.09375 -5.21875 C 4.015625 -5.140625 4.015625 -4.875 4.09375 -4.8125 Z M 4.09375 -4.8125 "/>
</g>
<g id="glyph-0-9">
<path d="M 2.8125 -1.53125 L 2.8125 -4.59375 L 4.375 -4.59375 C 4.921875 -4.53125 5.03125 -4.40625 5.03125 -3.75 L 5.03125 -1.453125 C 5.03125 -0.46875 4.890625 -0.4375 4.296875 -0.375 C 4.21875 -0.3125 4.21875 -0.046875 4.296875 0.03125 C 4.796875 0.015625 5.21875 0 5.8125 0 C 6.4375 0 6.9375 0.015625 7.453125 0.03125 C 7.515625 -0.046875 7.515625 -0.3125 7.453125 -0.375 C 6.71875 -0.4375 6.59375 -0.46875 6.59375 -1.453125 L 6.59375 -3.84375 C 6.59375 -4.4375 6.640625 -5.109375 6.640625 -5.109375 C 6.640625 -5.234375 6.53125 -5.3125 6.359375 -5.3125 C 6.1875 -5.234375 5.828125 -5.21875 5.421875 -5.1875 L 2.8125 -5.1875 L 2.8125 -5.71875 C 2.8125 -7.5 3.59375 -7.84375 3.859375 -7.84375 C 4.25 -7.84375 4.5 -7.640625 4.6875 -7.140625 C 4.828125 -6.765625 5.125 -6.375 5.5625 -6.375 C 5.984375 -6.375 6.328125 -6.640625 6.328125 -7.171875 C 6.328125 -7.390625 6.109375 -7.765625 5.734375 -7.96875 C 5.34375 -8.1875 4.734375 -8.34375 4.09375 -8.34375 C 3.34375 -8.34375 2.703125 -8.15625 2.265625 -7.734375 C 1.703125 -7.203125 1.25 -6.6875 1.25 -5.34375 L 1.25 -5.1875 L 1.109375 -5.1875 C 0.703125 -5.1875 0.265625 -5.015625 0.265625 -4.90625 L 0.265625 -4.703125 C 0.265625 -4.625 0.3125 -4.59375 0.578125 -4.59375 L 1.25 -4.59375 L 1.25 -1.5 C 1.25 -0.53125 1.0625 -0.421875 0.328125 -0.375 C 0.265625 -0.3125 0.265625 -0.046875 0.328125 0.03125 C 0.84375 0.015625 1.375 0 2.03125 0 C 2.65625 0 3.09375 0.015625 3.609375 0.03125 C 3.6875 -0.046875 3.6875 -0.3125 3.609375 -0.375 C 2.984375 -0.4375 2.8125 -0.53125 2.8125 -1.53125 Z M 2.8125 -1.53125 "/>
</g>
<g id="glyph-0-10">
<path d="M 0.75 -5.1875 C 0.578125 -5.1875 0.40625 -5.140625 0.25 -5.015625 L 0.25 -4.65625 C 0.25 -4.609375 0.265625 -4.59375 0.3125 -4.59375 L 1.09375 -4.59375 C 1.0625 -3.375 1.046875 -1.859375 1.046875 -1.25 C 1.046875 -0.84375 1.15625 -0.4375 1.40625 -0.21875 C 1.6875 0.015625 2.109375 0.125 2.40625 0.125 C 3.0625 0.125 3.796875 -0.21875 4.03125 -0.546875 C 4.03125 -0.6875 3.953125 -0.765625 3.8125 -0.890625 C 3.65625 -0.765625 3.359375 -0.71875 3.125 -0.71875 C 2.875 -0.71875 2.609375 -0.921875 2.609375 -1.515625 C 2.609375 -2.109375 2.59375 -3.390625 2.59375 -4.59375 L 3.796875 -4.59375 C 3.921875 -4.59375 4.09375 -4.640625 4.09375 -4.75 L 4.09375 -5.109375 C 4.09375 -5.15625 4.046875 -5.1875 4 -5.1875 L 2.59375 -5.1875 L 2.609375 -5.59375 C 2.625 -6.390625 2.671875 -6.9375 2.671875 -6.9375 C 2.671875 -7.015625 2.625 -7.046875 2.5625 -7.046875 C 2.484375 -7.046875 2.046875 -6.921875 1.859375 -6.84375 C 1.65625 -6.75 1.296875 -6.6875 1.21875 -6.578125 C 1.140625 -6.46875 1.09375 -6.140625 1.09375 -5.1875 Z M 0.75 -5.1875 "/>
</g>
<g id="glyph-1-0">
<path d="M 6.796875 -5.859375 C 6.34375 -5.765625 6.171875 -5.421875 6.171875 -5.15625 C 6.171875 -4.8125 6.4375 -4.6875 6.640625 -4.6875 C 7.078125 -4.6875 7.375 -5.0625 7.375 -5.453125 C 7.375 -6.046875 6.6875 -6.328125 6.078125 -6.328125 C 5.203125 -6.328125 4.71875 -5.46875 4.59375 -5.1875 C 4.265625 -6.265625 3.375 -6.328125 3.109375 -6.328125 C 1.65625 -6.328125 0.875 -4.453125 0.875 -4.125 C 0.875 -4.078125 0.9375 -4 1.03125 -4 C 1.140625 -4 1.171875 -4.09375 1.203125 -4.140625 C 1.6875 -5.734375 2.65625 -6.03125 3.0625 -6.03125 C 3.71875 -6.03125 3.84375 -5.4375 3.84375 -5.09375 C 3.84375 -4.78125 3.765625 -4.453125 3.578125 -3.765625 L 3.09375 -1.796875 C 2.890625 -0.9375 2.46875 -0.140625 1.703125 -0.140625 C 1.640625 -0.140625 1.28125 -0.140625 0.96875 -0.328125 C 1.484375 -0.4375 1.609375 -0.859375 1.609375 -1.03125 C 1.609375 -1.3125 1.390625 -1.484375 1.125 -1.484375 C 0.78125 -1.484375 0.40625 -1.1875 0.40625 -0.734375 C 0.40625 -0.125 1.078125 0.140625 1.6875 0.140625 C 2.375 0.140625 2.875 -0.40625 3.171875 -0.984375 C 3.40625 -0.140625 4.109375 0.140625 4.640625 0.140625 C 6.109375 0.140625 6.890625 -1.734375 6.890625 -2.046875 C 6.890625 -2.125 6.828125 -2.1875 6.734375 -2.1875 C 6.609375 -2.1875 6.59375 -2.109375 6.5625 -2 C 6.171875 -0.734375 5.328125 -0.140625 4.6875 -0.140625 C 4.1875 -0.140625 3.921875 -0.515625 3.921875 -1.109375 C 3.921875 -1.421875 3.96875 -1.65625 4.203125 -2.59375 L 4.703125 -4.546875 C 4.921875 -5.40625 5.40625 -6.03125 6.0625 -6.03125 C 6.09375 -6.03125 6.5 -6.03125 6.796875 -5.859375 Z M 6.796875 -5.859375 "/>
</g>
<g id="glyph-1-1">
<path d="M 3.765625 1.609375 C 3.390625 2.15625 2.828125 2.640625 2.125 2.640625 C 1.953125 2.640625 1.265625 2.609375 1.046875 1.953125 C 1.09375 1.96875 1.15625 1.96875 1.1875 1.96875 C 1.625 1.96875 1.90625 1.59375 1.90625 1.265625 C 1.90625 0.9375 1.640625 0.8125 1.421875 0.8125 C 1.1875 0.8125 0.6875 0.984375 0.6875 1.6875 C 0.6875 2.421875 1.3125 2.921875 2.125 2.921875 C 3.5625 2.921875 5 1.609375 5.40625 0.015625 L 6.8125 -5.578125 C 6.828125 -5.65625 6.859375 -5.734375 6.859375 -5.828125 C 6.859375 -6.03125 6.6875 -6.1875 6.46875 -6.1875 C 6.34375 -6.1875 6.03125 -6.125 5.921875 -5.6875 L 4.859375 -1.484375 C 4.796875 -1.21875 4.796875 -1.1875 4.671875 -1.03125 C 4.390625 -0.625 3.921875 -0.140625 3.234375 -0.140625 C 2.421875 -0.140625 2.359375 -0.9375 2.359375 -1.3125 C 2.359375 -2.140625 2.734375 -3.234375 3.125 -4.28125 C 3.28125 -4.6875 3.375 -4.890625 3.375 -5.171875 C 3.375 -5.78125 2.9375 -6.328125 2.234375 -6.328125 C 0.921875 -6.328125 0.390625 -4.25 0.390625 -4.125 C 0.390625 -4.078125 0.4375 -4 0.546875 -4 C 0.671875 -4 0.6875 -4.0625 0.75 -4.265625 C 1.09375 -5.46875 1.640625 -6.03125 2.1875 -6.03125 C 2.328125 -6.03125 2.5625 -6.03125 2.5625 -5.5625 C 2.5625 -5.1875 2.40625 -4.78125 2.1875 -4.234375 C 1.484375 -2.359375 1.484375 -1.875 1.484375 -1.53125 C 1.484375 -0.171875 2.46875 0.140625 3.1875 0.140625 C 3.59375 0.140625 4.109375 0.015625 4.625 -0.515625 L 4.640625 -0.5 C 4.421875 0.34375 4.28125 0.90625 3.765625 1.609375 Z M 3.765625 1.609375 "/>
</g>
<g id="glyph-1-2">
<path d="M 4.84375 -1.828125 C 4.796875 -1.59375 4.765625 -1.53125 4.578125 -1.3125 C 3.984375 -0.5625 3.390625 -0.28125 2.9375 -0.28125 C 2.46875 -0.28125 2.015625 -0.65625 2.015625 -1.65625 C 2.015625 -2.40625 2.453125 -4.015625 2.765625 -4.65625 C 3.1875 -5.46875 3.828125 -6.03125 4.4375 -6.03125 C 5.375 -6.03125 5.5625 -4.859375 5.5625 -4.78125 L 5.515625 -4.578125 Z M 5.734375 -5.375 C 5.546875 -5.796875 5.15625 -6.328125 4.4375 -6.328125 C 2.875 -6.328125 1.09375 -4.359375 1.09375 -2.21875 C 1.09375 -0.734375 2 0 2.90625 0 C 3.671875 0 4.34375 -0.609375 4.609375 -0.890625 L 4.28125 0.40625 C 4.09375 1.1875 4 1.546875 3.484375 2.046875 C 2.890625 2.640625 2.359375 2.640625 2.03125 2.640625 C 1.609375 2.640625 1.25 2.609375 0.890625 2.5 C 1.34375 2.359375 1.46875 1.96875 1.46875 1.8125 C 1.46875 1.578125 1.296875 1.34375 0.96875 1.34375 C 0.625 1.34375 0.265625 1.640625 0.265625 2.109375 C 0.265625 2.703125 0.84375 2.921875 2.0625 2.921875 C 3.921875 2.921875 4.875 1.734375 5.0625 0.96875 L 6.65625 -5.46875 C 6.703125 -5.640625 6.703125 -5.671875 6.703125 -5.6875 C 6.703125 -5.890625 6.546875 -6.046875 6.328125 -6.046875 C 5.984375 -6.046875 5.78125 -5.765625 5.734375 -5.375 Z M 5.734375 -5.375 "/>
</g>
<g id="glyph-2-0">
<path d="M 0.875 -0.59375 C 0.84375 -0.4375 0.78125 -0.203125 0.78125 -0.15625 C 0.78125 0.015625 0.921875 0.109375 1.078125 0.109375 C 1.203125 0.109375 1.375 0.03125 1.453125 -0.171875 C 1.453125 -0.1875 1.578125 -0.65625 1.640625 -0.90625 L 1.859375 -1.796875 C 1.90625 -2.03125 1.96875 -2.25 2.03125 -2.46875 C 2.0625 -2.640625 2.140625 -2.9375 2.15625 -2.96875 C 2.296875 -3.28125 2.828125 -4.1875 3.78125 -4.1875 C 4.234375 -4.1875 4.3125 -3.8125 4.3125 -3.484375 C 4.3125 -3.234375 4.25 -2.953125 4.171875 -2.65625 L 3.890625 -1.5 L 3.6875 -0.75 C 3.65625 -0.546875 3.5625 -0.203125 3.5625 -0.15625 C 3.5625 0.015625 3.703125 0.109375 3.84375 0.109375 C 4.15625 0.109375 4.21875 -0.140625 4.296875 -0.453125 C 4.4375 -1.015625 4.8125 -2.46875 4.890625 -2.859375 C 4.921875 -2.984375 5.453125 -4.1875 6.546875 -4.1875 C 6.96875 -4.1875 7.078125 -3.84375 7.078125 -3.484375 C 7.078125 -2.921875 6.65625 -1.78125 6.453125 -1.25 C 6.375 -1.015625 6.328125 -0.90625 6.328125 -0.703125 C 6.328125 -0.234375 6.671875 0.109375 7.140625 0.109375 C 8.078125 0.109375 8.453125 -1.34375 8.453125 -1.421875 C 8.453125 -1.53125 8.359375 -1.53125 8.328125 -1.53125 C 8.234375 -1.53125 8.234375 -1.5 8.1875 -1.34375 C 8.03125 -0.8125 7.71875 -0.109375 7.171875 -0.109375 C 7 -0.109375 6.921875 -0.203125 6.921875 -0.4375 C 6.921875 -0.6875 7.015625 -0.921875 7.109375 -1.140625 C 7.296875 -1.671875 7.71875 -2.765625 7.71875 -3.34375 C 7.71875 -3.984375 7.3125 -4.40625 6.5625 -4.40625 C 5.828125 -4.40625 5.3125 -3.96875 4.9375 -3.4375 C 4.9375 -3.5625 4.90625 -3.90625 4.625 -4.140625 C 4.375 -4.359375 4.0625 -4.40625 3.8125 -4.40625 C 2.90625 -4.40625 2.421875 -3.765625 2.25 -3.53125 C 2.203125 -4.109375 1.78125 -4.40625 1.328125 -4.40625 C 0.875 -4.40625 0.6875 -4.015625 0.59375 -3.84375 C 0.421875 -3.484375 0.296875 -2.90625 0.296875 -2.875 C 0.296875 -2.765625 0.390625 -2.765625 0.40625 -2.765625 C 0.515625 -2.765625 0.515625 -2.78125 0.578125 -3 C 0.75 -3.703125 0.953125 -4.1875 1.3125 -4.1875 C 1.46875 -4.1875 1.609375 -4.109375 1.609375 -3.734375 C 1.609375 -3.515625 1.578125 -3.40625 1.453125 -2.890625 Z M 0.875 -0.59375 "/>
</g>
<g id="glyph-3-0">
<path d="M 5.953125 -1.046875 C 5.984375 -0.3125 5.953125 -0.3125 5.375 -0.28125 C 5.3125 -0.21875 5.3125 -0.03125 5.375 0.015625 C 5.703125 0.015625 6.0625 0 6.328125 0 C 6.59375 0 7.015625 0.015625 7.3125 0.015625 C 7.359375 -0.03125 7.359375 -0.21875 7.3125 -0.28125 C 6.703125 -0.3125 6.671875 -0.34375 6.625 -1.078125 L 6.34375 -4.859375 C 6.3125 -5.34375 6.359375 -5.46875 6.96875 -5.5 C 7.015625 -5.5625 7.015625 -5.75 6.96875 -5.796875 L 5.796875 -5.78125 L 3.890625 -1.234375 C 3.859375 -1.140625 3.828125 -1.109375 3.8125 -1.109375 C 3.796875 -1.109375 3.765625 -1.15625 3.734375 -1.234375 L 1.90625 -5.78125 L 0.59375 -5.796875 C 0.546875 -5.75 0.546875 -5.5625 0.59375 -5.5 C 1.21875 -5.46875 1.28125 -5.453125 1.203125 -4.78125 L 0.859375 -1.078125 C 0.796875 -0.546875 0.6875 -0.328125 0.171875 -0.28125 C 0.125 -0.21875 0.125 -0.03125 0.171875 0.015625 C 0.453125 0.015625 0.734375 0 0.953125 0 C 1.171875 0 1.53125 0.015625 1.796875 0.015625 C 1.84375 -0.03125 1.84375 -0.21875 1.796875 -0.28125 C 1.203125 -0.328125 1.15625 -0.59375 1.203125 -1.109375 L 1.546875 -4.703125 L 1.5625 -4.703125 L 3.421875 -0.046875 C 3.4375 0.015625 3.5 0.09375 3.546875 0.09375 C 3.609375 0.09375 3.640625 0.03125 3.671875 -0.046875 L 5.6875 -4.796875 L 5.71875 -4.796875 Z M 5.953125 -1.046875 "/>
</g>
<g id="glyph-3-1">
<path d="M 1.109375 -2.53125 C 1.28125 -3.546875 1.90625 -3.625 2.125 -3.625 C 2.46875 -3.625 2.875 -3.4375 2.875 -2.6875 C 2.875 -2.59375 2.828125 -2.5625 2.734375 -2.5625 Z M 3.46875 -0.828125 C 3.125 -0.5 2.875 -0.34375 2.34375 -0.34375 C 2.03125 -0.34375 1.65625 -0.53125 1.375 -1 C 1.1875 -1.296875 1.078125 -1.703125 1.078125 -2.21875 L 3.46875 -2.203125 C 3.578125 -2.203125 3.640625 -2.265625 3.640625 -2.359375 C 3.640625 -3.109375 3.375 -3.921875 2.125 -3.921875 C 1.34375 -3.921875 0.328125 -3.171875 0.328125 -1.8125 C 0.328125 -1.3125 0.453125 -0.828125 0.75 -0.484375 C 1.0625 -0.125 1.484375 0.09375 2.125 0.09375 C 2.8125 0.09375 3.296875 -0.21875 3.65625 -0.6875 C 3.625 -0.78125 3.5625 -0.828125 3.46875 -0.828125 Z M 3.46875 -0.828125 "/>
</g>
<g id="glyph-3-2">
<path d="M 2.625 -2.09375 L 2.625 -0.90625 C 2.625 -0.796875 2.578125 -0.71875 2.5 -0.671875 C 2.265625 -0.484375 1.96875 -0.28125 1.71875 -0.28125 C 1.265625 -0.28125 1.0625 -0.640625 1.0625 -0.921875 C 1.0625 -1.3125 1.25 -1.734375 1.921875 -1.90625 Z M 2.625 -0.4375 C 2.6875 -0.15625 2.78125 0.09375 3.234375 0.09375 C 3.5625 0.09375 3.890625 -0.0625 4.078125 -0.234375 C 4.0625 -0.34375 4.03125 -0.4375 3.921875 -0.484375 C 3.859375 -0.4375 3.71875 -0.34375 3.59375 -0.34375 C 3.34375 -0.34375 3.328125 -0.6875 3.328125 -1.109375 L 3.328125 -2.421875 C 3.328125 -3.6875 2.625 -3.9375 1.96875 -3.9375 C 1.234375 -3.9375 0.5 -3.453125 0.5 -2.9375 C 0.5 -2.71875 0.59375 -2.625 0.8125 -2.625 C 1.0625 -2.625 1.234375 -2.8125 1.234375 -2.921875 C 1.234375 -2.984375 1.21875 -3.046875 1.203125 -3.078125 C 1.1875 -3.109375 1.1875 -3.171875 1.1875 -3.265625 C 1.1875 -3.546875 1.5625 -3.640625 1.90625 -3.640625 C 2.203125 -3.640625 2.625 -3.484375 2.625 -2.46875 C 2.625 -2.40625 2.59375 -2.375 2.578125 -2.375 L 1.796875 -2.171875 C 0.9375 -1.96875 0.328125 -1.484375 0.328125 -0.875 C 0.328125 -0.140625 0.828125 0.09375 1.453125 0.09375 C 1.765625 0.09375 2.03125 0.015625 2.4375 -0.28125 L 2.609375 -0.4375 Z M 2.625 -0.4375 "/>
</g>
<g id="glyph-3-3">
<path d="M 0.4375 -1.234375 C 0.46875 -0.796875 0.5 -0.375 0.5 0 C 0.578125 -0.015625 0.671875 -0.03125 0.71875 -0.03125 C 0.78125 -0.03125 0.828125 -0.03125 0.890625 -0.015625 C 1.140625 0.046875 1.375 0.09375 1.71875 0.09375 C 2.21875 0.09375 3.140625 -0.15625 3.140625 -1.046875 C 3.140625 -1.65625 2.703125 -2.015625 2.09375 -2.234375 C 1.546875 -2.4375 1.1875 -2.578125 1.1875 -3.0625 C 1.1875 -3.4375 1.515625 -3.640625 1.828125 -3.640625 C 2.015625 -3.640625 2.53125 -3.5625 2.65625 -2.8125 C 2.703125 -2.75 2.890625 -2.765625 2.9375 -2.8125 C 2.96875 -3.140625 2.984375 -3.46875 3 -3.765625 C 2.71875 -3.8125 2.28125 -3.9375 1.828125 -3.9375 C 1.15625 -3.9375 0.5625 -3.5 0.5625 -2.9375 C 0.5625 -2.28125 0.859375 -2 1.546875 -1.71875 C 2.28125 -1.40625 2.453125 -1.21875 2.453125 -0.828125 C 2.453125 -0.390625 2.03125 -0.203125 1.6875 -0.203125 C 1.34375 -0.203125 1.140625 -0.328125 1.0625 -0.421875 C 0.859375 -0.625 0.765625 -1.015625 0.703125 -1.25 C 0.65625 -1.296875 0.484375 -1.296875 0.4375 -1.234375 Z M 0.4375 -1.234375 "/>
</g>
<g id="glyph-3-4">
<path d="M 1.953125 0.09375 C 2.296875 0.09375 2.71875 -0.09375 3.15625 -0.453125 C 3.203125 -0.484375 3.28125 -0.5 3.296875 -0.4375 C 3.3125 -0.21875 3.390625 0.09375 3.390625 0.09375 C 3.46875 0.109375 3.5 0.109375 3.5625 0.09375 C 3.765625 -0.078125 4.078125 -0.203125 4.625 -0.265625 C 4.671875 -0.328125 4.671875 -0.453125 4.625 -0.515625 C 4.046875 -0.5625 3.96875 -0.71875 3.96875 -1.171875 L 3.96875 -2.890625 C 3.96875 -3.15625 4 -3.8125 4 -3.8125 C 4 -3.84375 3.96875 -3.859375 3.921875 -3.859375 C 3.890625 -3.859375 3.75 -3.84375 3.609375 -3.84375 C 3.328125 -3.84375 3 -3.859375 2.703125 -3.859375 C 2.640625 -3.8125 2.640625 -3.625 2.703125 -3.5625 C 3.140625 -3.546875 3.25 -3.4375 3.25 -2.84375 L 3.25 -1.109375 C 3.25 -0.9375 3.234375 -0.875 3.109375 -0.765625 C 2.78125 -0.46875 2.4375 -0.328125 2.21875 -0.328125 C 1.953125 -0.328125 1.5 -0.453125 1.5 -1.25 L 1.5 -2.890625 C 1.5 -3.15625 1.53125 -3.8125 1.53125 -3.8125 C 1.53125 -3.84375 1.5 -3.859375 1.46875 -3.859375 C 1.421875 -3.859375 1.28125 -3.84375 1.140625 -3.84375 C 0.859375 -3.84375 0.53125 -3.859375 0.234375 -3.859375 C 0.171875 -3.8125 0.171875 -3.625 0.234375 -3.5625 C 0.65625 -3.53125 0.796875 -3.4375 0.796875 -2.859375 L 0.796875 -1.125 C 0.796875 -0.515625 1.0625 0.09375 1.953125 0.09375 Z M 1.953125 0.09375 "/>
</g>
<g id="glyph-3-5">
<path d="M 1.578125 -3.203125 C 1.5625 -3.5625 1.546875 -3.796875 1.5 -3.890625 C 1.484375 -3.9375 1.46875 -3.96875 1.40625 -3.96875 C 1.140625 -3.859375 0.921875 -3.78125 0.296875 -3.703125 C 0.28125 -3.65625 0.296875 -3.5 0.3125 -3.453125 C 0.796875 -3.40625 0.890625 -3.359375 0.890625 -2.84375 L 0.890625 -1.09375 C 0.890625 -0.34375 0.796875 -0.3125 0.234375 -0.28125 C 0.171875 -0.21875 0.171875 -0.03125 0.234375 0.015625 C 0.546875 0.015625 0.890625 0 1.25 0 C 1.609375 0 2.03125 0.015625 2.34375 0.015625 C 2.390625 -0.03125 2.390625 -0.21875 2.34375 -0.28125 C 1.71875 -0.328125 1.609375 -0.34375 1.609375 -1.09375 L 1.609375 -2.34375 C 1.609375 -2.578125 1.71875 -2.78125 1.828125 -2.9375 C 1.921875 -3.078125 2.125 -3.375 2.234375 -3.375 C 2.3125 -3.375 2.390625 -3.359375 2.46875 -3.265625 C 2.53125 -3.171875 2.640625 -3.0625 2.796875 -3.0625 C 3 -3.0625 3.203125 -3.28125 3.203125 -3.5 C 3.203125 -3.671875 3.046875 -3.9375 2.671875 -3.9375 C 2.25 -3.9375 1.890625 -3.546875 1.671875 -3.1875 C 1.625 -3.09375 1.578125 -3.171875 1.578125 -3.203125 Z M 1.578125 -3.203125 "/>
</g>
<g id="glyph-3-6">
<path d="M 1.65625 -3.203125 C 1.59375 -3.140625 1.546875 -3.125 1.546875 -3.203125 C 1.53125 -3.453125 1.515625 -3.796875 1.46875 -3.890625 C 1.453125 -3.9375 1.4375 -3.96875 1.359375 -3.96875 C 1.109375 -3.859375 0.875 -3.78125 0.265625 -3.703125 C 0.234375 -3.65625 0.265625 -3.5 0.28125 -3.453125 C 0.765625 -3.40625 0.859375 -3.359375 0.859375 -2.84375 L 0.859375 -1.09375 C 0.859375 -0.359375 0.765625 -0.328125 0.234375 -0.28125 C 0.171875 -0.21875 0.171875 -0.03125 0.234375 0.015625 C 0.5 0.015625 0.859375 0 1.21875 0 C 1.578125 0 1.84375 0.015625 2.109375 0.015625 C 2.171875 -0.03125 2.171875 -0.21875 2.109375 -0.28125 C 1.65625 -0.328125 1.5625 -0.359375 1.5625 -1.09375 L 1.5625 -2.5625 C 1.5625 -2.75 1.65625 -2.859375 1.71875 -2.9375 C 2.0625 -3.28125 2.46875 -3.46875 2.8125 -3.46875 C 3 -3.46875 3.1875 -3.359375 3.296875 -3.140625 C 3.375 -2.96875 3.40625 -2.71875 3.40625 -2.453125 L 3.40625 -1.09375 C 3.40625 -0.359375 3.3125 -0.328125 2.84375 -0.28125 C 2.796875 -0.21875 2.796875 -0.03125 2.84375 0.015625 C 3.109375 0.015625 3.40625 0 3.765625 0 C 4.109375 0 4.4375 0.015625 4.703125 0.015625 C 4.75 -0.03125 4.75 -0.21875 4.703125 -0.28125 C 4.203125 -0.328125 4.109375 -0.359375 4.109375 -1.09375 L 4.109375 -2.4375 C 4.109375 -2.921875 4.078125 -3.359375 3.859375 -3.625 C 3.71875 -3.828125 3.4375 -3.9375 3.125 -3.9375 C 2.6875 -3.9375 2.171875 -3.828125 1.65625 -3.203125 Z M 1.65625 -3.203125 "/>
</g>
<g id="glyph-3-7">
<path d="M 3.09375 -1.109375 C 3.09375 -0.9375 3.078125 -0.875 2.953125 -0.765625 C 2.625 -0.46875 2.328125 -0.328125 2.109375 -0.328125 C 1.625 -0.328125 1.125 -0.859375 1.125 -1.984375 C 1.125 -2.625 1.25 -2.984375 1.375 -3.171875 C 1.65625 -3.59375 2.03125 -3.625 2.21875 -3.625 C 2.53125 -3.625 2.765625 -3.5 2.9375 -3.296875 C 3.0625 -3.15625 3.09375 -3.09375 3.09375 -2.8125 Z M 3 -0.453125 C 3.046875 -0.484375 3.125 -0.5 3.125 -0.4375 C 3.15625 -0.21875 3.234375 0.09375 3.234375 0.09375 C 3.296875 0.109375 3.34375 0.109375 3.40625 0.09375 C 3.59375 -0.078125 3.90625 -0.203125 4.453125 -0.265625 C 4.515625 -0.328125 4.515625 -0.453125 4.453125 -0.515625 C 3.890625 -0.5625 3.796875 -0.71875 3.796875 -1.171875 L 3.796875 -5.234375 C 3.796875 -5.8125 3.84375 -6.171875 3.84375 -6.171875 C 3.84375 -6.234375 3.796875 -6.265625 3.71875 -6.265625 C 3.5 -6.171875 2.828125 -6.046875 2.46875 -6.015625 C 2.453125 -5.953125 2.46875 -5.796875 2.515625 -5.75 C 2.984375 -5.71875 3.09375 -5.765625 3.09375 -5.015625 L 3.09375 -3.859375 C 3.09375 -3.796875 3.078125 -3.78125 3.015625 -3.78125 C 2.984375 -3.78125 2.609375 -3.9375 2.3125 -3.9375 C 1.71875 -3.9375 1.328125 -3.734375 0.96875 -3.40625 C 0.578125 -3.015625 0.34375 -2.484375 0.34375 -1.828125 C 0.34375 -0.71875 0.90625 0.09375 1.875 0.09375 C 2.21875 0.09375 2.5625 -0.09375 3 -0.453125 Z M 3 -0.453125 "/>
</g>
<g id="glyph-3-8">
<path d="M 2.96875 -5.578125 C 4.15625 -5.578125 5.109375 -4.59375 5.109375 -2.78125 C 5.109375 -1.171875 4.34375 -0.234375 3.3125 -0.234375 C 2.21875 -0.234375 1.1875 -1.203125 1.1875 -2.9375 C 1.1875 -4.8125 2.078125 -5.578125 2.96875 -5.578125 Z M 5.96875 -2.953125 C 5.96875 -4.8125 4.6875 -5.90625 3.078125 -5.90625 C 1.34375 -5.90625 0.328125 -4.515625 0.328125 -2.78125 C 0.328125 -1.015625 1.609375 0.09375 3.140625 0.09375 C 4.140625 0.09375 4.921875 -0.34375 5.421875 -1.046875 C 5.78125 -1.546875 5.96875 -2.203125 5.96875 -2.953125 Z M 5.96875 -2.953125 "/>
</g>
<g id="glyph-3-9">
<path d="M 0.390625 -3.84375 C 0.265625 -3.84375 0.21875 -3.734375 0.21875 -3.671875 L 0.21875 -3.546875 C 0.21875 -3.5 0.234375 -3.5 0.265625 -3.5 L 0.796875 -3.5 L 0.796875 -0.796875 C 0.796875 -0.15625 1.078125 0.09375 1.484375 0.09375 C 1.90625 0.09375 2.34375 -0.109375 2.703125 -0.5 C 2.6875 -0.59375 2.625 -0.640625 2.53125 -0.65625 C 2.3125 -0.46875 2.03125 -0.40625 1.796875 -0.40625 C 1.5625 -0.40625 1.5 -0.671875 1.5 -1.234375 L 1.5 -3.5 L 2.4375 -3.5 C 2.53125 -3.5 2.65625 -3.53125 2.65625 -3.609375 L 2.65625 -3.796875 C 2.65625 -3.828125 2.625 -3.84375 2.578125 -3.84375 L 1.5 -3.84375 L 1.5 -4.203125 C 1.5 -4.78125 1.546875 -5.140625 1.546875 -5.140625 C 1.546875 -5.1875 1.515625 -5.21875 1.46875 -5.21875 C 1.4375 -5.21875 1.359375 -5.1875 1.28125 -5.140625 C 1.171875 -5.078125 1.078125 -5.046875 0.96875 -5.015625 C 0.859375 -4.984375 0.765625 -4.953125 0.765625 -4.890625 C 0.765625 -4.78125 0.796875 -4.84375 0.796875 -3.84375 Z M 0.390625 -3.84375 "/>
</g>
<g id="glyph-3-10">
<path d="M 1.5625 -2.96875 C 1.796875 -3.25 2.21875 -3.53125 2.46875 -3.53125 C 3.046875 -3.53125 3.546875 -2.875 3.546875 -1.859375 C 3.546875 -1.125 3.28125 -0.21875 2.28125 -0.21875 C 2.109375 -0.21875 1.796875 -0.265625 1.640625 -0.40625 C 1.46875 -0.5625 1.421875 -0.625 1.421875 -0.9375 L 1.421875 -2.578125 C 1.421875 -2.765625 1.46875 -2.84375 1.5625 -2.96875 Z M 1.40625 -3.296875 C 1.390625 -3.5625 1.375 -3.796875 1.328125 -3.890625 C 1.3125 -3.9375 1.296875 -3.96875 1.21875 -3.96875 C 0.96875 -3.859375 0.734375 -3.78125 0.109375 -3.703125 C 0.09375 -3.65625 0.109375 -3.5 0.140625 -3.453125 C 0.625 -3.40625 0.71875 -3.359375 0.71875 -2.84375 L 0.71875 0.984375 C 0.71875 1.734375 0.625 1.78125 0.078125 1.796875 C 0.015625 1.859375 0.015625 2.046875 0.078125 2.09375 C 0.390625 2.09375 0.71875 2.078125 1.078125 2.078125 C 1.4375 2.078125 1.859375 2.09375 2.15625 2.09375 C 2.21875 2.046875 2.21875 1.859375 2.15625 1.796875 C 1.53125 1.765625 1.421875 1.734375 1.421875 0.984375 L 1.421875 0.015625 C 1.421875 -0.09375 1.46875 -0.09375 1.546875 -0.046875 C 1.78125 0.03125 2.046875 0.09375 2.328125 0.09375 C 2.828125 0.09375 3.28125 -0.0625 3.65625 -0.40625 C 4.078125 -0.828125 4.3125 -1.375 4.3125 -2.109375 C 4.3125 -3.0625 3.640625 -3.9375 2.71875 -3.9375 C 2.3125 -3.9375 1.859375 -3.65625 1.5 -3.265625 C 1.4375 -3.203125 1.40625 -3.203125 1.40625 -3.296875 Z M 1.40625 -3.296875 "/>
</g>
<g id="glyph-3-11">
<path d="M 3.203125 0.09375 C 4.078125 0.09375 4.875 -0.328125 5.484375 -1.125 C 5.4375 -1.203125 5.375 -1.25 5.28125 -1.25 C 4.640625 -0.5625 4.03125 -0.28125 3.1875 -0.28125 C 1.984375 -0.28125 1.140625 -1.640625 1.140625 -2.953125 C 1.140625 -3.71875 1.359375 -4.375 1.671875 -4.765625 C 2.125 -5.3125 2.640625 -5.5625 3.109375 -5.5625 C 4.34375 -5.5625 4.84375 -4.828125 5.078125 -4.0625 C 5.1875 -4.03125 5.28125 -4.046875 5.375 -4.109375 C 5.328125 -4.578125 5.265625 -5 5.171875 -5.5 C 4.71875 -5.546875 4.3125 -5.90625 3.203125 -5.90625 C 2.453125 -5.90625 1.8125 -5.625 1.28125 -5.140625 C 0.6875 -4.59375 0.328125 -3.71875 0.328125 -2.78125 C 0.328125 -1.21875 1.28125 0.09375 3.203125 0.09375 Z M 3.203125 0.09375 "/>
</g>
<g id="glyph-3-12">
<path d="M 0.859375 -1.09375 C 0.859375 -0.34375 0.75 -0.3125 0.203125 -0.28125 C 0.15625 -0.21875 0.15625 -0.03125 0.203125 0.015625 C 0.515625 0.015625 0.859375 0 1.203125 0 C 1.5625 0 1.90625 0.015625 2.203125 0.015625 C 2.265625 -0.03125 2.265625 -0.21875 2.203125 -0.28125 C 1.65625 -0.3125 1.5625 -0.34375 1.5625 -1.09375 L 1.5625 -5.234375 C 1.5625 -5.8125 1.59375 -6.171875 1.59375 -6.171875 C 1.59375 -6.234375 1.5625 -6.265625 1.484375 -6.265625 C 1.25 -6.171875 0.578125 -6.046875 0.21875 -6.015625 C 0.203125 -5.953125 0.21875 -5.796875 0.28125 -5.75 C 0.796875 -5.71875 0.859375 -5.6875 0.859375 -5.015625 Z M 0.859375 -1.09375 "/>
</g>
<g id="glyph-3-13">
<path d="M 0.8125 -5.375 C 0.8125 -5.140625 1.015625 -4.90625 1.234375 -4.90625 C 1.484375 -4.90625 1.703125 -5.140625 1.703125 -5.34375 C 1.703125 -5.546875 1.515625 -5.796875 1.28125 -5.796875 C 1.0625 -5.796875 0.8125 -5.59375 0.8125 -5.375 Z M 1.625 -1.09375 L 1.625 -2.875 C 1.625 -3.328125 1.65625 -3.90625 1.65625 -3.90625 C 1.65625 -3.9375 1.609375 -3.96875 1.546875 -3.96875 C 1.296875 -3.859375 0.9375 -3.78125 0.3125 -3.703125 C 0.296875 -3.65625 0.3125 -3.5 0.328125 -3.453125 C 0.828125 -3.40625 0.921875 -3.359375 0.921875 -2.84375 L 0.921875 -1.09375 C 0.921875 -0.34375 0.8125 -0.328125 0.265625 -0.28125 C 0.21875 -0.21875 0.21875 -0.03125 0.265625 0.015625 C 0.5625 0.015625 0.921875 0 1.28125 0 C 1.625 0 1.96875 0.015625 2.265625 0.015625 C 2.328125 -0.03125 2.328125 -0.21875 2.265625 -0.28125 C 1.71875 -0.3125 1.625 -0.34375 1.625 -1.09375 Z M 1.625 -1.09375 "/>
</g>
<g id="glyph-3-14">
<path d="M 1.5625 -3.25 C 1.796875 -3.46875 2.0625 -3.546875 2.328125 -3.546875 C 2.875 -3.546875 3.3125 -2.875 3.3125 -2.015625 C 3.3125 -0.984375 2.90625 -0.21875 2.046875 -0.21875 C 1.78125 -0.21875 1.59375 -0.40625 1.40625 -0.640625 L 1.40625 -2.875 C 1.40625 -3.0625 1.4375 -3.15625 1.5625 -3.25 Z M 1.5 -3.53125 C 1.4375 -3.484375 1.40625 -3.5 1.40625 -3.578125 L 1.40625 -5.234375 C 1.40625 -5.8125 1.4375 -6.171875 1.4375 -6.171875 C 1.4375 -6.234375 1.40625 -6.265625 1.328125 -6.265625 C 1.109375 -6.171875 0.4375 -6.046875 0.078125 -6.015625 C 0.046875 -5.953125 0.078125 -5.796875 0.125 -5.75 C 0.59375 -5.71875 0.703125 -5.765625 0.703125 -5.015625 L 0.703125 -0.640625 C 0.703125 -0.28125 0.6875 -0.125 0.65625 0 C 0.703125 0.078125 0.75 0.109375 0.859375 0.109375 C 0.921875 0.046875 1 -0.03125 1.078125 -0.109375 C 1.171875 -0.21875 1.21875 -0.21875 1.3125 -0.140625 C 1.53125 0.03125 1.796875 0.09375 2.109375 0.09375 C 3.015625 0.09375 4.09375 -0.75 4.09375 -2.171875 C 4.09375 -3.265625 3.28125 -3.9375 2.5 -3.9375 C 2.109375 -3.9375 1.78125 -3.78125 1.5 -3.53125 Z M 1.5 -3.53125 "/>
</g>
<g id="glyph-3-15">
<path d="M 0.375 -1.84375 C 0.375 -0.921875 0.984375 0.09375 2.25 0.09375 C 2.828125 0.09375 3.265625 -0.109375 3.5625 -0.40625 C 3.96875 -0.8125 4.15625 -1.375 4.15625 -1.921875 C 4.15625 -2.859375 3.640625 -3.9375 2.265625 -3.9375 C 1.671875 -3.9375 1.1875 -3.6875 0.859375 -3.3125 C 0.53125 -2.921875 0.375 -2.40625 0.375 -1.84375 Z M 2.140625 -3.625 C 2.90625 -3.625 3.375 -2.921875 3.375 -1.625 C 3.375 -0.5 2.796875 -0.21875 2.375 -0.21875 C 1.4375 -0.21875 1.140625 -1.359375 1.140625 -2.046875 C 1.140625 -2.828125 1.328125 -3.625 2.140625 -3.625 Z M 2.140625 -3.625 "/>
</g>
<g id="glyph-3-16">
<path d="M 1.53125 -3.203125 C 1.515625 -3.484375 1.5 -3.796875 1.453125 -3.890625 C 1.4375 -3.9375 1.421875 -3.96875 1.34375 -3.96875 C 1.09375 -3.859375 0.859375 -3.78125 0.234375 -3.703125 C 0.21875 -3.65625 0.234375 -3.5 0.265625 -3.453125 C 0.75 -3.40625 0.84375 -3.359375 0.84375 -2.84375 L 0.84375 -1.09375 C 0.84375 -0.359375 0.71875 -0.3125 0.234375 -0.28125 C 0.171875 -0.21875 0.171875 -0.03125 0.234375 0.015625 C 0.5 0.015625 0.84375 0 1.203125 0 C 1.5625 0 1.84375 0.015625 2.109375 0.015625 C 2.15625 -0.03125 2.15625 -0.21875 2.109375 -0.28125 C 1.65625 -0.328125 1.546875 -0.359375 1.546875 -1.09375 L 1.546875 -2.5625 C 1.546875 -2.75 1.625 -2.859375 1.703125 -2.9375 C 2.0625 -3.296875 2.390625 -3.46875 2.671875 -3.46875 C 3.015625 -3.46875 3.265625 -3.25 3.265625 -2.65625 L 3.265625 -1.09375 C 3.265625 -0.359375 3.1875 -0.3125 2.703125 -0.28125 C 2.65625 -0.21875 2.65625 -0.03125 2.703125 0.015625 C 2.9375 0.015625 3.265625 0 3.625 0 C 3.984375 0 4.28125 0.015625 4.5 0.015625 C 4.546875 -0.03125 4.546875 -0.21875 4.5 -0.28125 C 4.046875 -0.3125 3.96875 -0.359375 3.96875 -1.09375 L 3.96875 -2.515625 C 3.96875 -2.640625 3.96875 -2.765625 3.96875 -2.875 C 4.390625 -3.359375 4.796875 -3.46875 5.140625 -3.46875 C 5.484375 -3.46875 5.6875 -3.28125 5.6875 -2.671875 L 5.6875 -1.09375 C 5.6875 -0.359375 5.59375 -0.3125 5.125 -0.28125 C 5.078125 -0.21875 5.078125 -0.03125 5.125 0.015625 C 5.359375 0.015625 5.6875 0 6.046875 0 C 6.40625 0 6.71875 0.015625 6.96875 0.015625 C 7.015625 -0.03125 7.015625 -0.21875 6.96875 -0.28125 C 6.46875 -0.3125 6.390625 -0.359375 6.390625 -1.09375 L 6.390625 -2.515625 C 6.390625 -3.3125 6.265625 -3.9375 5.46875 -3.9375 C 5.015625 -3.9375 4.453125 -3.765625 3.984375 -3.28125 C 3.96875 -3.25 3.90625 -3.203125 3.890625 -3.28125 C 3.8125 -3.65625 3.46875 -3.9375 3 -3.9375 C 2.46875 -3.9375 2.015625 -3.625 1.625 -3.203125 C 1.59375 -3.171875 1.53125 -3.109375 1.53125 -3.203125 Z M 1.53125 -3.203125 "/>
</g>
<g id="glyph-4-0">
<path d="M 4.046875 -1.515625 C 4 -1.328125 3.96875 -1.28125 3.8125 -1.09375 C 3.328125 -0.46875 2.828125 -0.234375 2.453125 -0.234375 C 2.0625 -0.234375 1.6875 -0.546875 1.6875 -1.375 C 1.6875 -2.015625 2.046875 -3.34375 2.3125 -3.890625 C 2.65625 -4.546875 3.1875 -5.03125 3.6875 -5.03125 C 4.484375 -5.03125 4.640625 -4.046875 4.640625 -3.984375 L 4.609375 -3.8125 Z M 4.78125 -4.484375 C 4.625 -4.828125 4.296875 -5.265625 3.6875 -5.265625 C 2.390625 -5.265625 0.90625 -3.640625 0.90625 -1.859375 C 0.90625 -0.609375 1.65625 0 2.421875 0 C 3.0625 0 3.625 -0.5 3.84375 -0.734375 L 3.578125 0.328125 C 3.40625 0.984375 3.328125 1.296875 2.90625 1.703125 C 2.421875 2.203125 1.953125 2.203125 1.703125 2.203125 C 1.34375 2.203125 1.046875 2.171875 0.734375 2.078125 C 1.125 1.96875 1.21875 1.640625 1.21875 1.5 C 1.21875 1.3125 1.078125 1.125 0.8125 1.125 C 0.53125 1.125 0.21875 1.359375 0.21875 1.75 C 0.21875 2.25 0.703125 2.4375 1.71875 2.4375 C 3.265625 2.4375 4.0625 1.453125 4.21875 0.796875 L 5.546875 -4.546875 C 5.578125 -4.703125 5.578125 -4.71875 5.578125 -4.75 C 5.578125 -4.90625 5.453125 -5.046875 5.265625 -5.046875 C 4.984375 -5.046875 4.8125 -4.8125 4.78125 -4.484375 Z M 4.78125 -4.484375 "/>
</g>
<g id="glyph-5-0">
<path d="M 3.890625 2.90625 C 3.890625 2.875 3.890625 2.84375 3.6875 2.640625 C 2.484375 1.4375 1.8125 -0.53125 1.8125 -2.96875 C 1.8125 -5.296875 2.375 -7.296875 3.765625 -8.703125 C 3.890625 -8.8125 3.890625 -8.828125 3.890625 -8.875 C 3.890625 -8.9375 3.828125 -8.96875 3.78125 -8.96875 C 3.625 -8.96875 2.640625 -8.109375 2.0625 -6.9375 C 1.453125 -5.71875 1.171875 -4.453125 1.171875 -2.96875 C 1.171875 -1.90625 1.34375 -0.484375 1.953125 0.78125 C 2.671875 2.21875 3.640625 3 3.78125 3 C 3.828125 3 3.890625 2.96875 3.890625 2.90625 Z M 3.890625 2.90625 "/>
</g>
<g id="glyph-5-1">
<path d="M 3.375 -2.96875 C 3.375 -3.890625 3.25 -5.359375 2.578125 -6.75 C 1.875 -8.1875 0.890625 -8.96875 0.765625 -8.96875 C 0.71875 -8.96875 0.65625 -8.9375 0.65625 -8.875 C 0.65625 -8.828125 0.65625 -8.8125 0.859375 -8.609375 C 2.0625 -7.40625 2.71875 -5.421875 2.71875 -2.984375 C 2.71875 -0.671875 2.15625 1.328125 0.78125 2.734375 C 0.65625 2.84375 0.65625 2.875 0.65625 2.90625 C 0.65625 2.96875 0.71875 3 0.765625 3 C 0.921875 3 1.90625 2.140625 2.484375 0.96875 C 3.09375 -0.25 3.375 -1.546875 3.375 -2.96875 Z M 3.375 -2.96875 "/>
</g>
<g id="glyph-6-0">
<path d="M 2.296875 -2.984375 C 2.296875 -3.328125 2.015625 -3.625 1.65625 -3.625 C 1.3125 -3.625 1.03125 -3.328125 1.03125 -2.984375 C 1.03125 -2.640625 1.3125 -2.359375 1.65625 -2.359375 C 2.015625 -2.359375 2.296875 -2.640625 2.296875 -2.984375 Z M 2.296875 -2.984375 "/>
</g>
<g id="glyph-7-0">
<path d="M 3.515625 -9.953125 L 1.640625 -8 L 1.859375 -7.78125 L 3.5 -9.265625 L 5.15625 -7.78125 L 5.375 -8 Z M 3.515625 -9.953125 "/>
</g>
<g id="glyph-7-1">
<path d="M 4.65625 3.484375 C 4.65625 3.4375 4.65625 3.40625 4.421875 3.171875 C 2.984375 1.71875 2.1875 -0.640625 2.1875 -3.578125 C 2.1875 -6.359375 2.859375 -8.75 4.515625 -10.4375 C 4.65625 -10.578125 4.65625 -10.59375 4.65625 -10.640625 C 4.65625 -10.734375 4.59375 -10.75 4.53125 -10.75 C 4.34375 -10.75 3.171875 -9.71875 2.46875 -8.3125 C 1.734375 -6.875 1.40625 -5.328125 1.40625 -3.578125 C 1.40625 -2.296875 1.609375 -0.59375 2.359375 0.953125 C 3.203125 2.671875 4.375 3.59375 4.53125 3.59375 C 4.59375 3.59375 4.65625 3.578125 4.65625 3.484375 Z M 4.65625 3.484375 "/>
</g>
<g id="glyph-7-2">
<path d="M 4.046875 -3.578125 C 4.046875 -4.65625 3.90625 -6.4375 3.09375 -8.109375 C 2.25 -9.828125 1.078125 -10.75 0.921875 -10.75 C 0.859375 -10.75 0.78125 -10.734375 0.78125 -10.640625 C 0.78125 -10.59375 0.78125 -10.578125 1.03125 -10.328125 C 2.46875 -8.875 3.265625 -6.515625 3.265625 -3.578125 C 3.265625 -0.796875 2.59375 1.59375 0.9375 3.28125 C 0.78125 3.40625 0.78125 3.4375 0.78125 3.484375 C 0.78125 3.578125 0.859375 3.59375 0.921875 3.59375 C 1.109375 3.59375 2.28125 2.5625 2.984375 1.15625 C 3.71875 -0.296875 4.046875 -1.84375 4.046875 -3.578125 Z M 4.046875 -3.578125 "/>
</g>
<g id="glyph-8-0">
<path d="M 2.75 -3.578125 C 2.75 -4 2.40625 -4.34375 2 -4.34375 C 1.578125 -4.34375 1.234375 -4 1.234375 -3.578125 C 1.234375 -3.171875 1.578125 -2.828125 2 -2.828125 C 2.40625 -2.828125 2.75 -3.171875 2.75 -3.578125 Z M 2.75 -3.578125 "/>
</g>
</g>
</defs>
<path fill-rule="nonzero" fill="rgb(96.862793%, 98.039246%, 98.823547%)" fill-opacity="1" stroke-width="0.79701" stroke-linecap="butt" stroke-linejoin="miter" stroke="rgb(17.64679%, 21.569824%, 28.234863%)" stroke-opacity="1" stroke-miterlimit="10" d="M 41.371656 25.510531 L -41.370531 25.510531 C -43.56975 25.510531 -45.354906 23.729281 -45.354906 21.526156 L -45.354906 -21.528531 C -45.354906 -23.72775 -43.56975 -25.512906 -41.370531 -25.512906 L 41.371656 -25.512906 C 43.570875 -25.512906 45.356031 -23.72775 45.356031 -21.528531 L 45.356031 21.526156 C 45.356031 23.729281 43.570875 25.510531 41.371656 25.510531 Z M 41.371656 25.510531 " transform="matrix(1, 0, 0, -1, 138.476, 37.866)"/>
<g fill="rgb(0%, 0%, 0%)" fill-opacity="1">
<use xlink:href="#glyph-0-0" x="120.454" y="41.721"/>
<use xlink:href="#glyph-0-1" x="126.479421" y="41.721"/>
<use xlink:href="#glyph-0-2" x="132.325514" y="41.721"/>
<use xlink:href="#glyph-0-3" x="139.689917" y="41.721"/>
<use xlink:href="#glyph-0-4" x="144.794787" y="41.721"/>
<use xlink:href="#glyph-0-5" x="151.382102" y="41.721"/>
</g>
<path fill="none" stroke-width="0.99628" stroke-linecap="butt" stroke-linejoin="miter" stroke="rgb(17.64679%, 21.569824%, 28.234863%)" stroke-opacity="1" stroke-miterlimit="10" d="M -85.0385 -0.0011875 L -49.405687 -0.0011875 " transform="matrix(1, 0, 0, -1, 138.476, 37.866)"/>
<path fill-rule="nonzero" fill="rgb(17.64679%, 21.569824%, 28.234863%)" fill-opacity="1" stroke-width="0.99628" stroke-linecap="butt" stroke-linejoin="miter" stroke="rgb(17.64679%, 21.569824%, 28.234863%)" stroke-opacity="1" stroke-miterlimit="10" d="M 4.680801 -0.0011875 L 1.508926 1.338656 L 2.575333 -0.0011875 L 1.508926 -1.341031 Z M 4.680801 -0.0011875 " transform="matrix(1, 0, 0, -1, 86.74498, 37.866)"/>
<g fill="rgb(17.64679%, 21.569824%, 28.234863%)" fill-opacity="1">
<use xlink:href="#glyph-1-0" x="27.02" y="39.878"/>
</g>
<g fill="rgb(17.64679%, 21.569824%, 28.234863%)" fill-opacity="1">
<use xlink:href="#glyph-2-0" x="35.002" y="42.03"/>
</g>
<g fill="rgb(44.314575%, 50.193787%, 58.822632%)" fill-opacity="1">
<use xlink:href="#glyph-3-0" x="15.276" y="57.35"/>
<use xlink:href="#glyph-3-1" x="22.79881" y="57.35"/>
<use xlink:href="#glyph-3-2" x="26.80679" y="57.35"/>
<use xlink:href="#glyph-3-3" x="30.904435" y="57.35"/>
<use xlink:href="#glyph-3-4" x="34.401331" y="57.35"/>
<use xlink:href="#glyph-3-5" x="39.16249" y="57.35"/>
<use xlink:href="#glyph-3-2" x="42.49799" y="57.35"/>
<use xlink:href="#glyph-3-6" x="46.595635" y="57.35"/>
<use xlink:href="#glyph-3-7" x="51.455424" y="57.35"/>
</g>
<path fill="none" stroke-width="0.99628" stroke-linecap="butt" stroke-linejoin="miter" stroke="rgb(17.64679%, 21.569824%, 28.234863%)" stroke-opacity="1" stroke-miterlimit="10" d="M 45.754469 -0.0011875 L 87.059156 -0.0011875 " transform="matrix(1, 0, 0, -1, 138.476, 37.866)"/>
<path fill-rule="nonzero" fill="rgb(17.64679%, 21.569824%, 28.234863%)" fill-opacity="1" stroke-width="0.99628" stroke-linecap="butt" stroke-linejoin="miter" stroke="rgb(17.64679%, 21.569824%, 28.234863%)" stroke-opacity="1" stroke-miterlimit="10" d="M 4.682585 -0.0011875 L 1.506804 1.338656 L 2.57321 -0.0011875 L 1.506804 -1.341031 Z M 4.682585 -0.0011875 " transform="matrix(1, 0, 0, -1, 223.20804, 37.866)"/>
<g fill="rgb(17.64679%, 21.569824%, 28.234863%)" fill-opacity="1">
<use xlink:href="#glyph-1-1" x="201.524" y="31.055"/>
</g>
<g fill="rgb(44.314575%, 50.193787%, 58.822632%)" fill-opacity="1">
<use xlink:href="#glyph-3-8" x="192.137" y="48.737"/>
<use xlink:href="#glyph-3-4" x="198.431413" y="48.737"/>
<use xlink:href="#glyph-3-9" x="203.192571" y="48.737"/>
<use xlink:href="#glyph-3-10" x="206.025954" y="48.737"/>
<use xlink:href="#glyph-3-4" x="210.679515" y="48.737"/>
<use xlink:href="#glyph-3-9" x="215.440674" y="48.737"/>
</g>
<path fill-rule="nonzero" fill="rgb(93.348694%, 95.388794%, 97.521973%)" fill-opacity="1" stroke-width="0.79701" stroke-linecap="butt" stroke-linejoin="miter" stroke="rgb(16.862488%, 42.353821%, 69.018555%)" stroke-opacity="1" stroke-miterlimit="10" d="M 177.434156 25.510531 L 94.695875 25.510531 C 92.49275 25.510531 90.7115 23.729281 90.7115 21.526156 L 90.7115 -21.528531 C 90.7115 -23.72775 92.49275 -25.512906 94.695875 -25.512906 L 177.434156 -25.512906 C 179.637281 -25.512906 181.418531 -23.72775 181.418531 -21.528531 L 181.418531 21.526156 C 181.418531 23.729281 179.637281 25.510531 177.434156 25.510531 Z M 177.434156 25.510531 " transform="matrix(1, 0, 0, -1, 138.476, 37.866)"/>
<g fill="rgb(0%, 0%, 0%)" fill-opacity="1">
<use xlink:href="#glyph-0-6" x="250.593" y="34.571"/>
<use xlink:href="#glyph-0-7" x="259.033371" y="34.571"/>
<use xlink:href="#glyph-0-5" x="266.182581" y="34.571"/>
</g>
<g fill="rgb(0%, 0%, 0%)" fill-opacity="1">
<use xlink:href="#glyph-0-8" x="271.478734" y="34.571"/>
</g>
<g fill="rgb(0%, 0%, 0%)" fill-opacity="1">
<use xlink:href="#glyph-0-1" x="277.707394" y="34.571"/>
</g>
<g fill="rgb(0%, 0%, 0%)" fill-opacity="1">
<use xlink:href="#glyph-0-9" x="286.542286" y="34.571"/>
<use xlink:href="#glyph-0-10" x="294.20557" y="34.571"/>
</g>
<g fill="rgb(0%, 0%, 0%)" fill-opacity="1">
<use xlink:href="#glyph-4-0" x="265.309" y="46.526"/>
</g>
<g fill="rgb(0%, 0%, 0%)" fill-opacity="1">
<use xlink:href="#glyph-5-0" x="271.34518" y="46.526"/>
</g>
<g fill="rgb(0%, 0%, 0%)" fill-opacity="1">
<use xlink:href="#glyph-6-0" x="275.897721" y="46.526"/>
</g>
<g fill="rgb(0%, 0%, 0%)" fill-opacity="1">
<use xlink:href="#glyph-5-1" x="279.218875" y="46.526"/>
</g>
<path fill="none" stroke-width="0.99628" stroke-linecap="butt" stroke-linejoin="miter" stroke="rgb(17.64679%, 21.569824%, 28.234863%)" stroke-opacity="1" stroke-miterlimit="10" d="M -70.866625 -0.0011875 L -70.866625 -56.692594 L 136.063063 -56.692594 L 136.063063 -29.563688 " transform="matrix(1, 0, 0, -1, 138.476, 37.866)"/>
<path fill-rule="nonzero" fill="rgb(17.64679%, 21.569824%, 28.234863%)" fill-opacity="1" stroke-width="0.99628" stroke-linecap="butt" stroke-linejoin="miter" stroke="rgb(17.64679%, 21.569824%, 28.234863%)" stroke-opacity="1" stroke-miterlimit="10" d="M 4.684027 0.0016975 L 1.508246 1.341541 L 2.574652 0.0016975 L 1.508246 -1.342053 Z M 4.684027 0.0016975 " transform="matrix(0, -1, -1, 0, 274.54076, 69.75434)"/>
<path fill="none" stroke-width="0.99628" stroke-linecap="butt" stroke-linejoin="miter" stroke="rgb(16.862488%, 42.353821%, 69.018555%)" stroke-opacity="1" stroke-miterlimit="10" d="M 181.816969 -0.0011875 L 215.016188 -0.0011875 " transform="matrix(1, 0, 0, -1, 138.476, 37.866)"/>
<path fill-rule="nonzero" fill="rgb(16.862488%, 42.353821%, 69.018555%)" fill-opacity="1" stroke-width="0.99628" stroke-linecap="butt" stroke-linejoin="miter" stroke="rgb(16.862488%, 42.353821%, 69.018555%)" stroke-opacity="1" stroke-miterlimit="10" d="M 4.684172 -0.0011875 L 1.508391 1.338656 L 2.574797 -0.0011875 L 1.508391 -1.341031 Z M 4.684172 -0.0011875 " transform="matrix(1, 0, 0, -1, 351.16739, 37.866)"/>
<g fill="rgb(16.862488%, 42.353821%, 69.018555%)" fill-opacity="1">
<use xlink:href="#glyph-7-0" x="363.597" y="41.452"/>
</g>
<g fill="rgb(16.862488%, 42.353821%, 69.018555%)" fill-opacity="1">
<use xlink:href="#glyph-1-2" x="363.103491" y="41.452"/>
</g>
<g fill="rgb(16.862488%, 42.353821%, 69.018555%)" fill-opacity="1">
<use xlink:href="#glyph-7-1" x="370.332541" y="41.452"/>
</g>
<g fill="rgb(16.862488%, 42.353821%, 69.018555%)" fill-opacity="1">
<use xlink:href="#glyph-8-0" x="375.795574" y="41.452"/>
</g>
<g fill="rgb(16.862488%, 42.353821%, 69.018555%)" fill-opacity="1">
<use xlink:href="#glyph-7-2" x="379.780948" y="41.452"/>
</g>
<g fill="rgb(44.314575%, 50.193787%, 58.822632%)" fill-opacity="1">
<use xlink:href="#glyph-3-11" x="341.173" y="60.359"/>
<use xlink:href="#glyph-3-2" x="346.965294" y="60.359"/>
<use xlink:href="#glyph-3-12" x="351.062939" y="60.359"/>
<use xlink:href="#glyph-3-13" x="353.430069" y="60.359"/>
<use xlink:href="#glyph-3-14" x="355.859963" y="60.359"/>
<use xlink:href="#glyph-3-5" x="360.280398" y="60.359"/>
<use xlink:href="#glyph-3-2" x="363.615899" y="60.359"/>
<use xlink:href="#glyph-3-9" x="367.713544" y="60.359"/>
<use xlink:href="#glyph-3-13" x="370.546926" y="60.359"/>
<use xlink:href="#glyph-3-15" x="372.976821" y="60.359"/>
<use xlink:href="#glyph-3-6" x="377.495886" y="60.359"/>
</g>
<g fill="rgb(44.314575%, 50.193787%, 58.822632%)" fill-opacity="1">
<use xlink:href="#glyph-3-16" x="384.597275" y="60.359"/>
<use xlink:href="#glyph-3-15" x="391.680731" y="60.359"/>
</g>
<g fill="rgb(44.314575%, 50.193787%, 58.822632%)" fill-opacity="1">
<use xlink:href="#glyph-3-7" x="396.262562" y="60.359"/>
<use xlink:href="#glyph-3-1" x="400.79956" y="60.359"/>
<use xlink:href="#glyph-3-12" x="404.807541" y="60.359"/>
</g>
</svg>
