<?xml version="1.0" encoding="UTF-8"?>
<svg xmlns="http://www.w3.org/2000/svg" xmlns:xlink="http://www.w3.org/1999/xlink" width="228.937pt" height="206.518pt" viewBox="0 0 228.937 206.518">
<defs>
<g>
<g id="glyph-0-0">
<path d="M 3.203125 -2.1875 L 4.296875 -3.359375 C 4.390625 -3.46875 4.453125 -3.53125 5.171875 -3.53125 L 5.171875 -3.96875 C 4.875 -3.953125 4.640625 -3.953125 4.34375 -3.953125 C 4.1875 -3.953125 3.828125 -3.953125 3.421875 -3.96875 L 3.421875 -3.53125 C 3.625 -3.53125 3.671875 -3.5 3.734375 -3.4375 L 2.90625 -2.53125 L 2.015625 -3.53125 L 2.34375 -3.53125 L 2.34375 -3.96875 C 1.796875 -3.953125 1.5625 -3.953125 1.265625 -3.953125 C 1.078125 -3.953125 0.734375 -3.953125 0.28125 -3.96875 L 0.28125 -3.53125 L 0.90625 -3.53125 L 2.328125 -1.921875 L 1.125 -0.609375 C 0.953125 -0.4375 0.640625 -0.4375 0.234375 -0.4375 L 0.234375 0 C 0.53125 -0.03125 0.765625 -0.03125 1.0625 -0.03125 C 1.234375 -0.03125 1.578125 -0.03125 1.984375 0 L 1.984375 -0.4375 C 1.84375 -0.4375 1.6875 -0.46875 1.6875 -0.53125 C 1.6875 -0.578125 1.75 -0.625 1.75 -0.640625 L 2.625 -1.578125 L 3.625 -0.4375 L 3.3125 -0.4375 L 3.3125 0 C 3.875 -0.015625 4.078125 -0.03125 4.375 -0.03125 C 4.578125 -0.03125 4.921875 -0.03125 5.375 0 L 5.375 -0.4375 L 4.75 -0.4375 Z M 3.203125 -2.1875 "/>
</g>
<g id="glyph-0-1">
<path d="M 4.671875 -3.34375 C 4.734375 -3.46875 4.765625 -3.53125 5.34375 -3.53125 L 5.34375 -3.96875 C 5.078125 -3.953125 4.859375 -3.953125 4.609375 -3.953125 C 4.34375 -3.953125 4.0625 -3.953125 3.8125 -3.96875 L 3.8125 -3.53125 C 3.8125 -3.53125 4.203125 -3.53125 4.203125 -3.421875 C 4.203125 -3.421875 4.203125 -3.40625 4.15625 -3.328125 L 3.09375 -1.140625 L 1.921875 -3.53125 L 2.375 -3.53125 L 2.375 -3.96875 C 1.890625 -3.953125 1.5625 -3.953125 1.28125 -3.953125 C 0.953125 -3.953125 0.78125 -3.953125 0.25 -3.96875 L 0.25 -3.53125 L 0.8125 -3.53125 L 2.53125 0 C 2.21875 0.734375 1.875 1.4375 1.1875 1.4375 C 1.140625 1.4375 1.078125 1.4375 1.015625 1.40625 C 1.171875 1.328125 1.28125 1.15625 1.28125 0.9375 C 1.28125 0.59375 1.03125 0.40625 0.75 0.40625 C 0.453125 0.40625 0.203125 0.59375 0.203125 0.9375 C 0.203125 1.421875 0.65625 1.796875 1.1875 1.796875 C 1.875 1.796875 2.4375 1.265625 2.71875 0.6875 Z M 4.671875 -3.34375 "/>
</g>
<g id="glyph-1-0">
<path d="M 1.34375 -0.734375 C 1.125 -0.375 0.921875 -0.265625 0.578125 -0.234375 C 0.5 -0.234375 0.4375 -0.234375 0.4375 -0.09375 C 0.4375 -0.03125 0.484375 0 0.515625 0 C 0.6875 0 0.890625 -0.03125 1.0625 -0.03125 C 1.203125 -0.03125 1.546875 0 1.6875 0 C 1.765625 0 1.828125 -0.03125 1.828125 -0.15625 C 1.828125 -0.234375 1.75 -0.234375 1.71875 -0.234375 C 1.578125 -0.25 1.453125 -0.28125 1.453125 -0.40625 C 1.453125 -0.484375 1.515625 -0.578125 1.53125 -0.625 L 2.015625 -1.359375 L 3.8125 -1.359375 L 3.96875 -0.390625 C 3.96875 -0.234375 3.625 -0.234375 3.5625 -0.234375 C 3.484375 -0.234375 3.390625 -0.234375 3.390625 -0.09375 C 3.390625 -0.0625 3.421875 0 3.5 0 C 3.671875 0 4.109375 -0.03125 4.296875 -0.03125 C 4.40625 -0.03125 4.53125 -0.015625 4.640625 -0.015625 C 4.765625 -0.015625 4.890625 0 5.015625 0 C 5.046875 0 5.140625 0 5.140625 -0.15625 C 5.140625 -0.234375 5.0625 -0.234375 4.96875 -0.234375 C 4.609375 -0.234375 4.59375 -0.28125 4.578125 -0.4375 L 3.96875 -4.09375 C 3.953125 -4.203125 3.953125 -4.265625 3.8125 -4.265625 C 3.6875 -4.265625 3.65625 -4.21875 3.609375 -4.125 Z M 2.171875 -1.59375 L 3.46875 -3.53125 L 3.78125 -1.59375 Z M 2.171875 -1.59375 "/>
</g>
<g id="glyph-1-1">
<path d="M 1.25 -0.5 C 1.203125 -0.28125 1.1875 -0.234375 0.734375 -0.234375 C 0.609375 -0.234375 0.59375 -0.234375 0.578125 -0.21875 C 0.546875 -0.203125 0.515625 -0.125 0.515625 -0.078125 C 0.53125 0 0.59375 0 0.703125 0 L 3.140625 0 C 4.171875 0 4.984375 -0.671875 4.984375 -1.265625 C 4.984375 -1.640625 4.65625 -2.03125 3.921875 -2.140625 C 4.609375 -2.25 5.28125 -2.6875 5.28125 -3.21875 C 5.28125 -3.65625 4.8125 -4.078125 3.96875 -4.078125 L 1.6875 -4.078125 C 1.5625 -4.078125 1.484375 -4.078125 1.484375 -3.921875 C 1.484375 -3.84375 1.5625 -3.84375 1.671875 -3.84375 C 1.78125 -3.84375 1.9375 -3.84375 2.0625 -3.796875 C 2.0625 -3.734375 2.0625 -3.703125 2.03125 -3.609375 Z M 2.234375 -2.21875 L 2.578125 -3.640625 C 2.625 -3.828125 2.640625 -3.84375 2.890625 -3.84375 L 3.875 -3.84375 C 4.5 -3.84375 4.671875 -3.46875 4.671875 -3.21875 C 4.671875 -2.71875 4.046875 -2.21875 3.3125 -2.21875 Z M 1.953125 -0.234375 C 1.828125 -0.234375 1.828125 -0.234375 1.75 -0.25 L 2.171875 -2.015625 L 3.484375 -2.015625 C 4.234375 -2.015625 4.359375 -1.546875 4.359375 -1.296875 C 4.359375 -0.734375 3.71875 -0.234375 2.984375 -0.234375 Z M 1.953125 -0.234375 "/>
</g>
<g id="glyph-1-2">
<path d="M 2.171875 -1.828125 L 3.359375 -1.828125 C 4.25 -1.828125 5.25 -2.40625 5.25 -3.140625 C 5.25 -3.65625 4.703125 -4.078125 3.875 -4.078125 L 1.671875 -4.078125 C 1.5625 -4.078125 1.484375 -4.078125 1.484375 -3.921875 C 1.484375 -3.84375 1.5625 -3.84375 1.671875 -3.84375 C 1.78125 -3.84375 1.921875 -3.84375 2.046875 -3.796875 C 2.046875 -3.734375 2.046875 -3.703125 2.03125 -3.609375 L 1.25 -0.5 C 1.1875 -0.28125 1.1875 -0.234375 0.734375 -0.234375 C 0.59375 -0.234375 0.515625 -0.234375 0.515625 -0.09375 C 0.515625 -0.046875 0.5625 0 0.625 0 C 0.75 0 0.890625 -0.015625 1.015625 -0.015625 C 1.15625 -0.015625 1.296875 -0.03125 1.421875 -0.03125 C 1.5625 -0.03125 1.6875 -0.015625 1.828125 -0.015625 C 1.96875 -0.015625 2.109375 0 2.234375 0 C 2.28125 0 2.375 0 2.375 -0.15625 C 2.375 -0.234375 2.296875 -0.234375 2.171875 -0.234375 C 2.171875 -0.234375 2.0625 -0.234375 1.953125 -0.25 C 1.828125 -0.265625 1.796875 -0.265625 1.796875 -0.328125 C 1.796875 -0.359375 1.796875 -0.375 1.828125 -0.4375 Z M 2.59375 -3.640625 C 2.640625 -3.828125 2.65625 -3.84375 2.90625 -3.84375 L 3.671875 -3.84375 C 4.21875 -3.84375 4.609375 -3.6875 4.609375 -3.234375 C 4.609375 -3.0625 4.53125 -2.5625 4.203125 -2.3125 C 3.9375 -2.109375 3.5625 -2.046875 3.21875 -2.046875 L 2.203125 -2.046875 Z M 2.59375 -3.640625 "/>
</g>
<g id="glyph-2-0">
<path d="M 4.59375 -1.734375 C 4.59375 -2.734375 3.890625 -3.625 2.4375 -3.625 C 0.96875 -3.625 0.265625 -2.734375 0.265625 -1.734375 C 0.265625 -0.78125 0.96875 0.0625 2.4375 0.0625 C 3.90625 0.0625 4.59375 -0.796875 4.59375 -1.734375 Z M 2.4375 -0.3125 C 1.34375 -0.3125 1.34375 -1.140625 1.34375 -1.828125 C 1.34375 -2.484375 1.34375 -3.28125 2.4375 -3.28125 C 3.515625 -3.28125 3.515625 -2.46875 3.515625 -1.828125 C 3.515625 -1.140625 3.515625 -0.3125 2.4375 -0.3125 Z M 2.4375 -0.3125 "/>
</g>
<g id="glyph-2-1">
<path d="M 1.8125 -1.703125 C 1.8125 -2.328125 2.0625 -3.234375 2.828125 -3.25 C 2.828125 -3.25 2.703125 -3.125 2.703125 -2.890625 C 2.703125 -2.578125 2.921875 -2.375 3.21875 -2.375 C 3.515625 -2.375 3.75 -2.578125 3.75 -2.890625 C 3.75 -3.328125 3.296875 -3.59375 2.84375 -3.59375 C 2.15625 -3.59375 1.84375 -3.03125 1.71875 -2.734375 L 1.703125 -2.734375 L 1.703125 -3.59375 L 0.359375 -3.515625 L 0.359375 -3.109375 C 0.828125 -3.109375 0.890625 -3.109375 0.890625 -2.796875 L 0.890625 -0.40625 L 0.359375 -0.40625 L 0.359375 0 C 0.828125 -0.03125 0.90625 -0.03125 1.390625 -0.03125 C 1.84375 -0.03125 1.859375 -0.03125 2.46875 0 L 2.46875 -0.40625 L 1.8125 -0.40625 Z M 1.8125 -1.703125 "/>
</g>
<g id="glyph-3-0">
<path d="M 3.8125 -3.90625 C 3.8125 -4.90625 3.421875 -5.59375 2.765625 -5.59375 C 1.578125 -5.59375 0.34375 -3.390625 0.34375 -1.609375 C 0.34375 -0.84375 0.609375 0.078125 1.40625 0.078125 C 2.5625 0.078125 3.8125 -2.078125 3.8125 -3.90625 Z M 1.234375 -2.890625 C 1.609375 -4.5 2.265625 -5.375 2.765625 -5.375 C 3.234375 -5.375 3.234375 -4.53125 3.234375 -4.375 C 3.234375 -3.921875 3.09375 -3.28125 3 -2.890625 Z M 2.921875 -2.625 C 2.546875 -1.03125 1.90625 -0.140625 1.40625 -0.140625 C 0.984375 -0.140625 0.9375 -0.78125 0.9375 -1.140625 C 0.9375 -1.640625 1.078125 -2.296875 1.171875 -2.625 Z M 2.921875 -2.625 "/>
</g>
<g id="glyph-3-1">
<path d="M 6.21875 -3.421875 C 6.21875 -4.71875 5.3125 -5.59375 4.03125 -5.59375 C 2.171875 -5.59375 0.40625 -3.765625 0.40625 -1.984375 C 0.40625 -0.765625 1.265625 0.171875 2.59375 0.171875 C 4.375 0.171875 6.21875 -1.546875 6.21875 -3.421875 Z M 2.671875 -0.09375 C 1.859375 -0.09375 1.1875 -0.671875 1.1875 -1.8125 C 1.1875 -1.9375 1.1875 -3.265625 2.109375 -4.390625 C 2.40625 -4.75 3.125 -5.359375 3.984375 -5.359375 C 4.765625 -5.359375 5.46875 -4.796875 5.46875 -3.703125 C 5.46875 -3.265625 5.3125 -2.015625 4.484375 -1.046875 C 4.03125 -0.5 3.34375 -0.09375 2.671875 -0.09375 Z M 2.671875 -0.09375 "/>
</g>
<g id="glyph-3-2">
<path d="M 2.5 -2.484375 L 3.953125 -2.484375 C 5.09375 -2.484375 6.296875 -3.28125 6.296875 -4.21875 C 6.296875 -4.890625 5.65625 -5.4375 4.625 -5.4375 L 1.953125 -5.4375 C 1.8125 -5.4375 1.703125 -5.4375 1.703125 -5.28125 C 1.703125 -5.171875 1.8125 -5.171875 1.9375 -5.171875 C 2.1875 -5.171875 2.421875 -5.171875 2.421875 -5.046875 C 2.421875 -5.015625 2.421875 -5 2.390625 -4.90625 L 1.328125 -0.625 C 1.25 -0.328125 1.234375 -0.265625 0.671875 -0.265625 C 0.5 -0.265625 0.40625 -0.265625 0.40625 -0.109375 C 0.40625 -0.078125 0.421875 0 0.53125 0 C 0.6875 0 0.875 -0.015625 1.03125 -0.03125 L 1.53125 -0.03125 C 2.296875 -0.03125 2.5 0 2.5625 0 C 2.609375 0 2.71875 0 2.71875 -0.15625 C 2.71875 -0.265625 2.609375 -0.265625 2.484375 -0.265625 C 2.453125 -0.265625 2.3125 -0.265625 2.171875 -0.28125 C 2.015625 -0.296875 2 -0.3125 2 -0.390625 C 2 -0.421875 2.015625 -0.484375 2.015625 -0.515625 Z M 3.078125 -4.875 C 3.15625 -5.140625 3.171875 -5.171875 3.484375 -5.171875 L 4.359375 -5.171875 C 5.015625 -5.171875 5.515625 -4.984375 5.515625 -4.390625 C 5.515625 -4.28125 5.484375 -3.578125 5.03125 -3.140625 C 4.921875 -3.015625 4.53125 -2.71875 3.75 -2.71875 L 2.546875 -2.71875 Z M 3.078125 -4.875 "/>
</g>
<g id="glyph-3-3">
<path d="M 3.734375 -0.0625 C 4.96875 -0.5 6.21875 -1.859375 6.21875 -3.421875 C 6.21875 -4.71875 5.3125 -5.59375 4.03125 -5.59375 C 2.171875 -5.59375 0.40625 -3.765625 0.40625 -1.984375 C 0.40625 -0.765625 1.265625 0.171875 2.59375 0.171875 C 2.8125 0.171875 3.078125 0.140625 3.40625 0.0625 C 3.40625 0.15625 3.390625 0.453125 3.390625 0.515625 C 3.390625 0.84375 3.390625 1.546875 4.109375 1.546875 C 5.0625 1.546875 5.5 0.140625 5.5 0 C 5.5 -0.0625 5.453125 -0.109375 5.390625 -0.109375 C 5.3125 -0.109375 5.28125 -0.03125 5.265625 -0.015625 C 5.109375 0.515625 4.640625 0.734375 4.3125 0.734375 C 4.03125 0.734375 3.84375 0.640625 3.734375 -0.0625 Z M 2.09375 -0.1875 C 1.46875 -0.421875 1.15625 -1 1.15625 -1.78125 C 1.15625 -2.3125 1.34375 -3.34375 1.984375 -4.21875 C 2.5 -4.921875 3.265625 -5.359375 3.96875 -5.359375 C 4.796875 -5.359375 5.46875 -4.765625 5.46875 -3.640625 C 5.46875 -3.21875 5.3125 -1.265625 3.6875 -0.34375 C 3.59375 -0.796875 3.421875 -1.203125 2.90625 -1.203125 C 2.453125 -1.203125 2.046875 -0.796875 2.046875 -0.390625 C 2.046875 -0.3125 2.0625 -0.25 2.09375 -0.1875 Z M 3.40625 -0.234375 C 3.25 -0.15625 2.953125 -0.078125 2.65625 -0.078125 C 2.5625 -0.078125 2.28125 -0.078125 2.28125 -0.390625 C 2.28125 -0.671875 2.5625 -0.984375 2.921875 -0.984375 C 3.265625 -0.984375 3.40625 -0.765625 3.40625 -0.234375 Z M 3.40625 -0.234375 "/>
</g>
<g id="glyph-3-4">
<path d="M 1.609375 -0.4375 C 1.609375 -0.703125 1.390625 -0.875 1.171875 -0.875 C 0.921875 -0.875 0.734375 -0.671875 0.734375 -0.453125 C 0.734375 -0.171875 0.953125 0 1.171875 0 C 1.421875 0 1.609375 -0.203125 1.609375 -0.4375 Z M 1.609375 -0.4375 "/>
</g>
<g id="glyph-4-0">
<path d="M 5.8125 -2.640625 C 5.9375 -2.640625 6.09375 -2.640625 6.09375 -2.828125 C 6.09375 -3.015625 5.90625 -3.015625 5.78125 -3.015625 L 0.78125 -3.015625 C 0.65625 -3.015625 0.46875 -3.015625 0.46875 -2.828125 C 0.46875 -2.640625 0.625 -2.640625 0.75 -2.640625 Z M 5.78125 -0.96875 C 5.90625 -0.96875 6.09375 -0.96875 6.09375 -1.140625 C 6.09375 -1.328125 5.9375 -1.328125 5.8125 -1.328125 L 0.75 -1.328125 C 0.625 -1.328125 0.46875 -1.328125 0.46875 -1.140625 C 0.46875 -0.96875 0.65625 -0.96875 0.78125 -0.96875 Z M 5.78125 -0.96875 "/>
</g>
<g id="glyph-4-1">
<path d="M 2.015625 -2.65625 C 2.640625 -2.65625 3.03125 -2.1875 3.03125 -1.359375 C 3.03125 -0.359375 2.46875 -0.078125 2.046875 -0.078125 C 1.609375 -0.078125 1.015625 -0.234375 0.734375 -0.65625 C 1.03125 -0.65625 1.21875 -0.828125 1.21875 -1.09375 C 1.21875 -1.359375 1.046875 -1.53125 0.78125 -1.53125 C 0.578125 -1.53125 0.34375 -1.40625 0.34375 -1.078125 C 0.34375 -0.328125 1.15625 0.171875 2.0625 0.171875 C 3.125 0.171875 3.859375 -0.5625 3.859375 -1.359375 C 3.859375 -2.015625 3.34375 -2.625 2.53125 -2.796875 C 3.15625 -3.015625 3.625 -3.5625 3.625 -4.203125 C 3.625 -4.828125 2.90625 -5.28125 2.078125 -5.28125 C 1.234375 -5.28125 0.59375 -4.828125 0.59375 -4.21875 C 0.59375 -3.921875 0.78125 -3.796875 1 -3.796875 C 1.234375 -3.796875 1.40625 -3.984375 1.40625 -4.203125 C 1.40625 -4.5 1.140625 -4.609375 0.96875 -4.625 C 1.296875 -5.0625 1.921875 -5.078125 2.0625 -5.078125 C 2.265625 -5.078125 2.875 -5.015625 2.875 -4.203125 C 2.875 -3.640625 2.640625 -3.3125 2.53125 -3.1875 C 2.296875 -2.9375 2.109375 -2.921875 1.625 -2.890625 C 1.46875 -2.875 1.40625 -2.875 1.40625 -2.765625 C 1.40625 -2.65625 1.484375 -2.65625 1.609375 -2.65625 Z M 2.015625 -2.65625 "/>
</g>
<g id="glyph-4-2">
<path d="M 2.25 -1.625 C 2.375 -1.734375 2.703125 -2 2.828125 -2.109375 C 3.328125 -2.5625 3.796875 -3 3.796875 -3.734375 C 3.796875 -4.671875 3 -5.28125 2 -5.28125 C 1.046875 -5.28125 0.421875 -4.5625 0.421875 -3.859375 C 0.421875 -3.46875 0.734375 -3.40625 0.84375 -3.40625 C 1.015625 -3.40625 1.25 -3.53125 1.25 -3.828125 C 1.25 -4.25 0.859375 -4.25 0.765625 -4.25 C 1 -4.828125 1.53125 -5.03125 1.921875 -5.03125 C 2.65625 -5.03125 3.03125 -4.390625 3.03125 -3.734375 C 3.03125 -2.90625 2.453125 -2.296875 1.515625 -1.34375 L 0.515625 -0.296875 C 0.421875 -0.21875 0.421875 -0.203125 0.421875 0 L 3.5625 0 L 3.796875 -1.421875 L 3.546875 -1.421875 C 3.515625 -1.265625 3.453125 -0.859375 3.359375 -0.71875 C 3.3125 -0.65625 2.71875 -0.65625 2.578125 -0.65625 L 1.171875 -0.65625 Z M 2.25 -1.625 "/>
</g>
<g id="glyph-4-3">
<path d="M 3.890625 -2.53125 C 3.890625 -3.390625 3.796875 -3.90625 3.546875 -4.40625 C 3.1875 -5.109375 2.546875 -5.28125 2.109375 -5.28125 C 1.109375 -5.28125 0.734375 -4.546875 0.625 -4.3125 C 0.34375 -3.734375 0.328125 -2.953125 0.328125 -2.53125 C 0.328125 -2.015625 0.34375 -1.203125 0.734375 -0.578125 C 1.09375 0.015625 1.6875 0.171875 2.109375 0.171875 C 2.484375 0.171875 3.171875 0.046875 3.578125 -0.734375 C 3.859375 -1.3125 3.890625 -2.015625 3.890625 -2.53125 Z M 2.109375 -0.0625 C 1.84375 -0.0625 1.28125 -0.1875 1.125 -1.015625 C 1.03125 -1.46875 1.03125 -2.21875 1.03125 -2.625 C 1.03125 -3.1875 1.03125 -3.734375 1.125 -4.171875 C 1.28125 -4.984375 1.90625 -5.0625 2.109375 -5.0625 C 2.375 -5.0625 2.921875 -4.9375 3.078125 -4.203125 C 3.1875 -3.765625 3.1875 -3.171875 3.1875 -2.625 C 3.1875 -2.15625 3.1875 -1.453125 3.078125 -1 C 2.921875 -0.171875 2.375 -0.0625 2.109375 -0.0625 Z M 2.109375 -0.0625 "/>
</g>
<g id="glyph-4-4">
<path d="M 1.109375 -4.46875 C 1.21875 -4.4375 1.53125 -4.359375 1.875 -4.359375 C 2.859375 -4.359375 3.46875 -5.0625 3.46875 -5.171875 C 3.46875 -5.265625 3.40625 -5.28125 3.375 -5.28125 C 3.359375 -5.28125 3.34375 -5.28125 3.265625 -5.25 C 2.953125 -5.125 2.59375 -5.03125 2.15625 -5.03125 C 1.6875 -5.03125 1.296875 -5.15625 1.0625 -5.25 C 0.984375 -5.28125 0.96875 -5.28125 0.953125 -5.28125 C 0.84375 -5.28125 0.84375 -5.203125 0.84375 -5.0625 L 0.84375 -2.734375 C 0.84375 -2.578125 0.84375 -2.484375 0.984375 -2.484375 C 1.046875 -2.484375 1.0625 -2.515625 1.109375 -2.578125 C 1.203125 -2.703125 1.5 -3.109375 2.171875 -3.109375 C 2.625 -3.109375 2.84375 -2.75 2.90625 -2.59375 C 3.046875 -2.3125 3.0625 -1.9375 3.0625 -1.625 C 3.0625 -1.34375 3.046875 -0.90625 2.828125 -0.5625 C 2.6875 -0.3125 2.359375 -0.078125 1.9375 -0.078125 C 1.421875 -0.078125 0.921875 -0.390625 0.734375 -0.921875 C 0.75 -0.90625 0.796875 -0.90625 0.8125 -0.90625 C 1.03125 -0.90625 1.203125 -1.046875 1.203125 -1.296875 C 1.203125 -1.59375 0.984375 -1.6875 0.8125 -1.6875 C 0.671875 -1.6875 0.421875 -1.609375 0.421875 -1.265625 C 0.421875 -0.5625 1.046875 0.171875 1.953125 0.171875 C 2.953125 0.171875 3.796875 -0.609375 3.796875 -1.59375 C 3.796875 -2.515625 3.125 -3.328125 2.1875 -3.328125 C 1.796875 -3.328125 1.421875 -3.203125 1.109375 -2.9375 Z M 1.109375 -4.46875 "/>
</g>
<g id="glyph-4-5">
<path d="M 2.5 -5.0625 C 2.5 -5.28125 2.484375 -5.28125 2.265625 -5.28125 C 1.9375 -4.96875 1.515625 -4.78125 0.765625 -4.78125 L 0.765625 -4.515625 C 0.984375 -4.515625 1.40625 -4.515625 1.875 -4.734375 L 1.875 -0.65625 C 1.875 -0.359375 1.84375 -0.265625 1.09375 -0.265625 L 0.8125 -0.265625 L 0.8125 0 C 1.140625 -0.03125 1.828125 -0.03125 2.171875 -0.03125 C 2.53125 -0.03125 3.234375 -0.03125 3.5625 0 L 3.5625 -0.265625 L 3.28125 -0.265625 C 2.515625 -0.265625 2.5 -0.359375 2.5 -0.65625 Z M 2.5 -5.0625 "/>
</g>
<g id="glyph-5-0">
<path d="M 2.09375 18.71875 L 4.34375 18.71875 L 4.34375 18.234375 L 2.59375 18.234375 L 2.59375 0.140625 L 4.34375 0.140625 L 4.34375 -0.359375 L 2.09375 -0.359375 Z M 2.09375 18.71875 "/>
</g>
<g id="glyph-5-1">
<path d="M 1.859375 18.234375 L 0.109375 18.234375 L 0.109375 18.71875 L 2.359375 18.71875 L 2.359375 -0.359375 L 0.109375 -0.359375 L 0.109375 0.140625 L 1.859375 0.140625 Z M 1.859375 18.234375 "/>
</g>
<g id="glyph-6-0">
<path d="M 3.25 -1.5 C 3.25 -2.25 2.640625 -2.84375 1.90625 -2.84375 C 1.15625 -2.84375 0.5625 -2.25 0.5625 -1.5 C 0.5625 -0.734375 1.15625 -0.140625 1.90625 -0.140625 C 2.640625 -0.140625 3.25 -0.734375 3.25 -1.5 Z M 1.90625 -0.453125 C 1.328125 -0.453125 0.859375 -0.90625 0.859375 -1.5 C 0.859375 -2.078125 1.328125 -2.53125 1.90625 -2.53125 C 2.484375 -2.53125 2.9375 -2.078125 2.9375 -1.5 C 2.9375 -0.90625 2.484375 -0.453125 1.90625 -0.453125 Z M 1.90625 -0.453125 "/>
</g>
<g id="glyph-7-0">
<path d="M 5.5625 -1.8125 C 5.6875 -1.8125 5.859375 -1.8125 5.859375 -1.984375 C 5.859375 -2.171875 5.6875 -2.171875 5.5625 -2.171875 L 1 -2.171875 C 0.875 -2.171875 0.703125 -2.171875 0.703125 -1.984375 C 0.703125 -1.8125 0.875 -1.8125 1 -1.8125 Z M 5.5625 -1.8125 "/>
</g>
<g id="glyph-8-0">
<path d="M 0.34375 -2 C 0.34375 -1.640625 0.375 0.1875 2.03125 1.625 C 2.109375 1.609375 2.171875 1.546875 2.203125 1.484375 C 1.9375 1.1875 1.015625 0.09375 1.015625 -2 C 1.015625 -4.09375 1.953125 -5.1875 2.203125 -5.484375 C 2.171875 -5.5625 2.125 -5.609375 2.03125 -5.625 C 1.09375 -4.8125 0.34375 -3.484375 0.34375 -2 Z M 0.34375 -2 "/>
</g>
<g id="glyph-8-1">
<path d="M 3.734375 -0.96875 L 3.734375 -2.640625 C 3.734375 -2.953125 3.765625 -3.46875 3.765625 -3.46875 C 3.765625 -3.5 3.71875 -3.515625 3.6875 -3.515625 C 3.453125 -3.421875 3.21875 -3.40625 2.9375 -3.40625 L 1.375 -3.40625 L 1.375 -3.859375 C 1.375 -4.625 1.640625 -5.28125 2.1875 -5.28125 C 2.53125 -5.28125 2.796875 -5.1875 2.859375 -4.875 C 2.9375 -4.46875 3.109375 -4.34375 3.359375 -4.34375 C 3.53125 -4.34375 3.703125 -4.515625 3.703125 -4.671875 C 3.703125 -5.171875 3.015625 -5.546875 2.28125 -5.546875 C 1.921875 -5.546875 1.484375 -5.40625 1.15625 -5.03125 C 0.8125 -4.640625 0.75 -4.15625 0.75 -3.53125 L 0.75 -3.40625 L 0.359375 -3.40625 C 0.21875 -3.40625 0.171875 -3.3125 0.171875 -3.25 L 0.171875 -3.15625 C 0.171875 -3.109375 0.1875 -3.109375 0.21875 -3.109375 L 0.75 -3.109375 L 0.75 -0.96875 C 0.75 -0.3125 0.65625 -0.28125 0.234375 -0.25 C 0.1875 -0.203125 0.1875 -0.03125 0.234375 0.015625 C 0.5 0.015625 0.78125 0 1.0625 0 C 1.34375 0 1.703125 0.015625 1.96875 0.015625 C 2.015625 -0.03125 2.015625 -0.203125 1.96875 -0.25 C 1.453125 -0.28125 1.375 -0.3125 1.375 -0.96875 L 1.375 -3.109375 L 2.796875 -3.109375 C 3.046875 -3.109375 3.109375 -2.9375 3.109375 -2.53125 L 3.109375 -0.96875 C 3.109375 -0.3125 3.015625 -0.28125 2.578125 -0.25 C 2.53125 -0.203125 2.53125 -0.03125 2.578125 0.015625 C 2.859375 0.015625 3.140625 0 3.421875 0 C 3.703125 0 4.015625 0.015625 4.3125 0.015625 C 4.359375 -0.03125 4.359375 -0.203125 4.3125 -0.25 C 3.828125 -0.28125 3.734375 -0.3125 3.734375 -0.96875 Z M 3.734375 -0.96875 "/>
</g>
<g id="glyph-8-2">
<path d="M 1.453125 -2.84375 C 1.265625 -3.125 1.3125 -3.125 1.671875 -3.171875 C 1.71875 -3.21875 1.71875 -3.375 1.671875 -3.421875 C 1.46875 -3.421875 1.109375 -3.40625 0.875 -3.40625 C 0.640625 -3.40625 0.390625 -3.421875 0.1875 -3.421875 C 0.140625 -3.375 0.140625 -3.21875 0.1875 -3.171875 C 0.46875 -3.140625 0.6875 -3 0.90625 -2.6875 L 1.59375 -1.671875 C 1.640625 -1.609375 1.640625 -1.59375 1.609375 -1.546875 L 0.9375 -0.6875 C 0.625 -0.28125 0.453125 -0.265625 0.171875 -0.25 C 0.125 -0.203125 0.125 -0.03125 0.171875 0.015625 C 0.328125 0.015625 0.5 0 0.734375 0 C 0.984375 0 1.203125 0.015625 1.40625 0.015625 C 1.453125 -0.03125 1.453125 -0.203125 1.40625 -0.25 C 1.125 -0.28125 1.0625 -0.3125 1.234375 -0.5625 L 1.734375 -1.28125 C 1.796875 -1.390625 1.828125 -1.375 1.875 -1.296875 L 2.34375 -0.671875 C 2.609375 -0.28125 2.484375 -0.265625 2.234375 -0.25 C 2.1875 -0.203125 2.1875 -0.03125 2.234375 0.015625 C 2.46875 0.015625 2.734375 0 3.015625 0 C 3.328125 0 3.546875 0.015625 3.734375 0.015625 C 3.78125 -0.03125 3.78125 -0.203125 3.734375 -0.25 C 3.375 -0.265625 3.25 -0.296875 2.9375 -0.75 L 2.21875 -1.75 C 2.1875 -1.8125 2.171875 -1.828125 2.21875 -1.875 L 2.890625 -2.734375 C 3.1875 -3.109375 3.375 -3.140625 3.65625 -3.171875 C 3.703125 -3.21875 3.703125 -3.375 3.65625 -3.421875 C 3.5 -3.421875 3.3125 -3.40625 3.078125 -3.40625 C 2.84375 -3.40625 2.609375 -3.421875 2.40625 -3.421875 C 2.359375 -3.375 2.359375 -3.21875 2.40625 -3.171875 C 2.703125 -3.140625 2.796875 -3.109375 2.59375 -2.84375 L 2.078125 -2.109375 C 2.03125 -2.03125 2 -2.046875 1.9375 -2.125 Z M 1.453125 -2.84375 "/>
</g>
<g id="glyph-8-3">
<path d="M 0.984375 -2.25 C 1.140625 -3.140625 1.6875 -3.21875 1.890625 -3.21875 C 2.1875 -3.21875 2.546875 -3.046875 2.546875 -2.375 C 2.546875 -2.3125 2.515625 -2.265625 2.421875 -2.265625 Z M 3.0625 -0.734375 C 2.78125 -0.4375 2.546875 -0.3125 2.078125 -0.3125 C 1.796875 -0.3125 1.46875 -0.484375 1.21875 -0.875 C 1.0625 -1.140625 0.96875 -1.515625 0.96875 -1.96875 L 3.078125 -1.953125 C 3.171875 -1.953125 3.234375 -2 3.234375 -2.09375 C 3.234375 -2.765625 2.984375 -3.46875 1.890625 -3.46875 C 1.1875 -3.46875 0.296875 -2.8125 0.296875 -1.609375 C 0.296875 -1.15625 0.40625 -0.734375 0.671875 -0.421875 C 0.9375 -0.109375 1.3125 0.078125 1.890625 0.078125 C 2.484375 0.078125 2.921875 -0.203125 3.234375 -0.609375 C 3.21875 -0.6875 3.171875 -0.734375 3.0625 -0.734375 Z M 3.0625 -0.734375 "/>
</g>
<g id="glyph-8-4">
<path d="M 2.75 -0.984375 C 2.75 -0.828125 2.734375 -0.765625 2.609375 -0.671875 C 2.328125 -0.421875 2.0625 -0.296875 1.875 -0.296875 C 1.4375 -0.296875 1 -0.765625 1 -1.75 C 1 -2.328125 1.109375 -2.640625 1.21875 -2.8125 C 1.46875 -3.1875 1.8125 -3.21875 1.96875 -3.21875 C 2.25 -3.21875 2.453125 -3.109375 2.609375 -2.921875 C 2.71875 -2.796875 2.75 -2.75 2.75 -2.5 Z M 2.65625 -0.390625 C 2.703125 -0.421875 2.765625 -0.453125 2.78125 -0.390625 C 2.796875 -0.203125 2.859375 0.078125 2.859375 0.078125 C 2.921875 0.109375 2.96875 0.09375 3.015625 0.078125 C 3.1875 -0.0625 3.46875 -0.1875 3.953125 -0.234375 C 4 -0.28125 4 -0.40625 3.953125 -0.453125 C 3.4375 -0.5 3.375 -0.640625 3.375 -1.03125 L 3.375 -4.640625 C 3.375 -5.15625 3.40625 -5.46875 3.40625 -5.46875 C 3.40625 -5.53125 3.375 -5.546875 3.296875 -5.546875 C 3.109375 -5.46875 2.5 -5.359375 2.1875 -5.34375 C 2.171875 -5.265625 2.1875 -5.140625 2.234375 -5.09375 C 2.640625 -5.078125 2.75 -5.109375 2.75 -4.453125 L 2.75 -3.421875 C 2.75 -3.375 2.734375 -3.359375 2.671875 -3.359375 C 2.640625 -3.359375 2.3125 -3.484375 2.046875 -3.484375 C 1.53125 -3.484375 1.171875 -3.3125 0.859375 -3.015625 C 0.515625 -2.671875 0.3125 -2.203125 0.3125 -1.609375 C 0.3125 -0.640625 0.796875 0.078125 1.65625 0.078125 C 1.96875 0.078125 2.265625 -0.078125 2.65625 -0.390625 Z M 2.65625 -0.390625 "/>
</g>
<g id="glyph-8-5">
<path d="M 2.015625 -2 C 2.015625 -2.359375 1.984375 -4.203125 0.328125 -5.625 C 0.25 -5.609375 0.1875 -5.5625 0.171875 -5.5 C 0.421875 -5.1875 1.359375 -4.09375 1.359375 -2 C 1.359375 0.09375 0.421875 1.1875 0.171875 1.46875 C 0.1875 1.546875 0.25 1.609375 0.328125 1.609375 C 1.28125 0.796875 2.015625 -0.53125 2.015625 -2 Z M 2.015625 -2 "/>
</g>
</g>
</defs>
<path fill-rule="nonzero" fill="rgb(96.862793%, 98.039246%, 98.823547%)" fill-opacity="1" stroke-width="0.79701" stroke-linecap="butt" stroke-linejoin="miter" stroke="rgb(44.314575%, 50.193787%, 58.822632%)" stroke-opacity="1" stroke-miterlimit="10" d="M 129.060212 21.403475 C 150.770922 32.918569 156.929794 45.886264 161.95321 64.891456 C 166.976626 83.900562 163.206127 95.728886 151.691033 107.024719 C 140.175939 118.316638 129.62011 120.019822 110.078513 115.767734 C 90.536917 111.515645 79.593466 104.323116 63.661838 87.870744 C 47.73021 71.414457 38.192376 58.250993 38.302007 41.638091 C 38.411637 25.025189 44.006696 17.523346 64.151259 13.03242 C 84.299737 8.541495 107.349503 9.892296 129.060212 21.403475 Z M 129.060212 21.403475 " transform="matrix(0.997671, 0, 0, -0.997671, 36.666086, 138.240356)"/>
<path fill="none" stroke-width="0.3985" stroke-linecap="butt" stroke-linejoin="miter" stroke="rgb(75%, 75%, 75%)" stroke-opacity="1" stroke-dasharray="0.3985 0.99628" stroke-miterlimit="10" d="M 34.190871 30.338342 L 172.920153 95.028035 " transform="matrix(0.997671, 0, 0, -0.997671, 36.666086, 138.240356)"/>
<path fill="none" stroke-width="0.3985" stroke-linecap="butt" stroke-linejoin="miter" stroke="rgb(75%, 75%, 75%)" stroke-opacity="1" stroke-dasharray="0.3985 0.99628" stroke-miterlimit="10" d="M 109.87883 15.589155 L 64.354858 113.214914 " transform="matrix(0.997671, 0, 0, -0.997671, 36.666086, 138.240356)"/>
<path fill="none" stroke-width="0.3985" stroke-linecap="butt" stroke-linejoin="miter" stroke="rgb(78.823853%, 46.586609%, 51.293945%)" stroke-opacity="1" stroke-dasharray="0.3985 0.99628" stroke-miterlimit="10" d="M 124.107273 72.268007 L 136.088296 46.575369 L 102.690216 31.003955 " transform="matrix(0.997671, 0, 0, -0.997671, 36.666086, 138.240356)"/>
<path fill="none" stroke-width="0.3985" stroke-linecap="butt" stroke-linejoin="miter" stroke="rgb(75%, 75%, 75%)" stroke-opacity="1" stroke-dasharray="0.3985 0.99628" stroke-miterlimit="10" d="M -28.345369 -0.00183606 L 184.25514 -0.00183606 " transform="matrix(0.997671, 0, 0, -0.997671, 36.666086, 138.240356)"/>
<path fill="none" stroke-width="0.3985" stroke-linecap="butt" stroke-linejoin="miter" stroke="rgb(75%, 75%, 75%)" stroke-opacity="1" stroke-dasharray="0.3985 0.99628" stroke-miterlimit="10" d="M 0.00188721 -28.345177 L 0.00188721 130.395545 " transform="matrix(0.997671, 0, 0, -0.997671, 36.666086, 138.240356)"/>
<path fill="none" stroke-width="0.79701" stroke-linecap="butt" stroke-linejoin="miter" stroke="rgb(16.862488%, 42.353821%, 69.018555%)" stroke-opacity="1" stroke-miterlimit="10" d="M 0.00188721 -0.00183606 L 23.685942 -0.00183606 " transform="matrix(0.997671, 0, 0, -0.997671, 36.666086, 138.240356)"/>
<path fill-rule="nonzero" fill="rgb(16.862488%, 42.353821%, 69.018555%)" fill-opacity="1" d="M 64.945312 138.242188 C 63.570312 137.980469 61.328125 137.207031 59.777344 136.300781 L 59.777344 140.179688 C 61.328125 139.273438 63.570312 138.5 64.945312 138.242188 "/>
<g fill="rgb(16.862488%, 42.353821%, 69.018555%)" fill-opacity="1">
<use xlink:href="#glyph-0-0" x="59.148613" y="145.927415"/>
</g>
<g fill="rgb(16.862488%, 42.353821%, 69.018555%)" fill-opacity="1">
<use xlink:href="#glyph-1-0" x="64.735574" y="146.921095"/>
</g>
<path fill="none" stroke-width="0.79701" stroke-linecap="butt" stroke-linejoin="miter" stroke="rgb(16.862488%, 42.353821%, 69.018555%)" stroke-opacity="1" stroke-miterlimit="10" d="M 0.00188721 -0.00183606 L 0.00188721 23.686134 " transform="matrix(0.997671, 0, 0, -0.997671, 36.666086, 138.240356)"/>
<path fill-rule="nonzero" fill="rgb(16.862488%, 42.353821%, 69.018555%)" fill-opacity="1" d="M 36.667969 109.960938 C 36.40625 111.335938 35.632812 113.578125 34.726562 115.128906 L 38.605469 115.128906 C 37.699219 113.578125 36.925781 111.335938 36.667969 109.960938 "/>
<g fill="rgb(16.862488%, 42.353821%, 69.018555%)" fill-opacity="1">
<use xlink:href="#glyph-0-1" x="21.360807" y="111.078749"/>
</g>
<g fill="rgb(16.862488%, 42.353821%, 69.018555%)" fill-opacity="1">
<use xlink:href="#glyph-1-0" x="26.947768" y="112.07243"/>
</g>
<path fill="none" stroke-width="0.79701" stroke-linecap="butt" stroke-linejoin="miter" stroke="rgb(64.704895%, 10.978699%, 18.824768%)" stroke-opacity="1" stroke-miterlimit="10" d="M 90.709193 56.692677 L 112.173235 66.704271 " transform="matrix(0.997671, 0, 0, -0.997671, 36.666086, 138.240356)"/>
<path fill-rule="nonzero" fill="rgb(64.704895%, 10.978699%, 18.824768%)" fill-opacity="1" d="M 152.796875 69.726562 C 151.4375 70.074219 149.078125 70.320312 147.292969 70.15625 L 148.929688 73.667969 C 149.953125 72.191406 151.65625 70.542969 152.796875 69.726562 "/>
<g fill="rgb(64.704895%, 10.978699%, 18.824768%)" fill-opacity="1">
<use xlink:href="#glyph-0-0" x="156.504391" y="77.41432"/>
</g>
<g fill="rgb(64.704895%, 10.978699%, 18.824768%)" fill-opacity="1">
<use xlink:href="#glyph-1-1" x="162.091351" y="78.408001"/>
</g>
<path fill="none" stroke-width="0.79701" stroke-linecap="butt" stroke-linejoin="miter" stroke="rgb(64.704895%, 10.978699%, 18.824768%)" stroke-opacity="1" stroke-miterlimit="10" d="M 90.709193 56.692677 L 80.701515 78.160634 " transform="matrix(0.997671, 0, 0, -0.997671, 36.666086, 138.240356)"/>
<path fill-rule="nonzero" fill="rgb(64.704895%, 10.978699%, 18.824768%)" fill-opacity="1" d="M 115.210938 56.046875 C 115.5625 57.40625 115.804688 59.761719 115.640625 61.550781 L 119.152344 59.914062 C 117.679688 58.890625 116.027344 57.1875 115.210938 56.046875 "/>
<g fill="rgb(64.704895%, 10.978699%, 18.824768%)" fill-opacity="1">
<use xlink:href="#glyph-0-1" x="99.606188" y="50.598905"/>
</g>
<g fill="rgb(64.704895%, 10.978699%, 18.824768%)" fill-opacity="1">
<use xlink:href="#glyph-1-1" x="105.193148" y="51.593584"/>
</g>
<path fill="none" stroke-width="0.79701" stroke-linecap="butt" stroke-linejoin="miter" stroke="rgb(44.314575%, 50.193787%, 58.822632%)" stroke-opacity="1" stroke-dasharray="2.98883 1.99255" stroke-miterlimit="10" d="M 0.00188721 -0.00183606 L 86.754673 54.222081 " transform="matrix(0.997671, 0, 0, -0.997671, 36.666086, 138.240356)"/>
<path fill-rule="nonzero" fill="rgb(44.314575%, 50.193787%, 58.822632%)" fill-opacity="1" d="M 127.164062 81.679688 C 125.859375 82.191406 123.546875 82.71875 121.753906 82.773438 L 123.808594 86.0625 C 124.644531 84.472656 126.132812 82.628906 127.164062 81.679688 "/>
<g fill="rgb(44.314575%, 50.193787%, 58.822632%)" fill-opacity="1">
<use xlink:href="#glyph-2-0" x="85.624819" y="120.55164"/>
</g>
<g fill="rgb(44.314575%, 50.193787%, 58.822632%)" fill-opacity="1">
<use xlink:href="#glyph-1-0" x="90.495452" y="117.746188"/>
</g>
<g fill="rgb(44.314575%, 50.193787%, 58.822632%)" fill-opacity="1">
<use xlink:href="#glyph-1-1" x="90.495452" y="123.252337"/>
</g>
<path fill="none" stroke-width="0.3985" stroke-linecap="butt" stroke-linejoin="miter" stroke="rgb(18.429565%, 52.157593%, 35.293579%)" stroke-opacity="1" stroke-miterlimit="10" d="M 104.882821 56.692677 C 104.882821 58.763906 104.428639 60.807728 103.555512 62.683189 " transform="matrix(0.997671, 0, 0, -0.997671, 36.666086, 138.240356)"/>
<g fill="rgb(18.429565%, 52.157593%, 35.293579%)" fill-opacity="1">
<use xlink:href="#glyph-3-0" x="142.744506" y="79.182194"/>
</g>
<g fill="rgb(18.429565%, 52.157593%, 35.293579%)" fill-opacity="1">
<use xlink:href="#glyph-1-1" x="146.686306" y="80.519074"/>
</g>
<path fill-rule="nonzero" fill="rgb(17.64679%, 21.569824%, 28.234863%)" fill-opacity="1" d="M 38.363281 138.242188 C 38.363281 137.304688 37.601562 136.542969 36.667969 136.542969 C 35.730469 136.542969 34.96875 137.304688 34.96875 138.242188 C 34.96875 139.175781 35.730469 139.9375 36.667969 139.9375 C 37.601562 139.9375 38.363281 139.175781 38.363281 138.242188 Z M 38.363281 138.242188 "/>
<g fill="rgb(17.64679%, 21.569824%, 28.234863%)" fill-opacity="1">
<use xlink:href="#glyph-3-1" x="20.736265" y="147.185478"/>
</g>
<g fill="rgb(17.64679%, 21.569824%, 28.234863%)" fill-opacity="1">
<use xlink:href="#glyph-1-0" x="27.146305" y="148.522358"/>
</g>
<path fill-rule="nonzero" fill="rgb(17.64679%, 21.569824%, 28.234863%)" fill-opacity="1" d="M 128.863281 81.679688 C 128.863281 80.742188 128.101562 79.980469 127.164062 79.980469 C 126.226562 79.980469 125.46875 80.742188 125.46875 81.679688 C 125.46875 82.617188 126.226562 83.375 127.164062 83.375 C 128.101562 83.375 128.863281 82.617188 128.863281 81.679688 Z M 128.863281 81.679688 "/>
<g fill="rgb(17.64679%, 21.569824%, 28.234863%)" fill-opacity="1">
<use xlink:href="#glyph-3-1" x="110.932752" y="90.625486"/>
</g>
<g fill="rgb(17.64679%, 21.569824%, 28.234863%)" fill-opacity="1">
<use xlink:href="#glyph-1-1" x="117.343789" y="91.961368"/>
</g>
<path fill="none" stroke-width="0.3985" stroke-linecap="butt" stroke-linejoin="miter" stroke="rgb(75.292969%, 37.684631%, 43.177795%)" stroke-opacity="1" stroke-miterlimit="10" d="M 90.709193 56.692677 L 132.587958 47.358442 " transform="matrix(0.997671, 0, 0, -0.997671, 36.666086, 138.240356)"/>
<path fill-rule="nonzero" fill="rgb(75.292969%, 37.684631%, 43.177795%)" fill-opacity="1" d="M 172.4375 91.773438 C 171.445312 91.347656 169.894531 90.390625 168.882812 89.453125 L 168.234375 92.363281 C 169.546875 91.941406 171.359375 91.734375 172.4375 91.773438 "/>
<g fill="rgb(64.704895%, 10.978699%, 18.824768%)" fill-opacity="1">
<use xlink:href="#glyph-2-1" x="146.895817" y="97.624151"/>
</g>
<g fill="rgb(64.704895%, 10.978699%, 18.824768%)" fill-opacity="1">
<use xlink:href="#glyph-1-1" x="150.921421" y="94.817701"/>
</g>
<g fill="rgb(64.704895%, 10.978699%, 18.824768%)" fill-opacity="1">
<use xlink:href="#glyph-1-2" x="150.921421" y="100.324848"/>
</g>
<path fill="none" stroke-width="0.3985" stroke-linecap="butt" stroke-linejoin="miter" stroke="rgb(50.117493%, 65.412903%, 81.411743%)" stroke-opacity="1" stroke-miterlimit="10" d="M 0.00188721 -0.00183606 L 132.693673 45.41642 " transform="matrix(0.997671, 0, 0, -0.997671, 36.666086, 138.240356)"/>
<path fill-rule="nonzero" fill="rgb(50.117493%, 65.412903%, 81.411743%)" fill-opacity="1" d="M 172.4375 91.773438 C 171.371094 91.925781 169.546875 91.921875 168.191406 91.648438 L 169.160156 94.46875 C 170.0625 93.425781 171.5 92.304688 172.4375 91.773438 "/>
<g fill="rgb(16.862488%, 42.353821%, 69.018555%)" fill-opacity="1">
<use xlink:href="#glyph-2-1" x="121.639763" y="120.75317"/>
</g>
<g fill="rgb(16.862488%, 42.353821%, 69.018555%)" fill-opacity="1">
<use xlink:href="#glyph-1-0" x="125.665367" y="117.94672"/>
</g>
<g fill="rgb(16.862488%, 42.353821%, 69.018555%)" fill-opacity="1">
<use xlink:href="#glyph-1-2" x="125.665367" y="123.452869"/>
</g>
<path fill-rule="nonzero" fill="rgb(17.64679%, 21.569824%, 28.234863%)" fill-opacity="1" d="M 174.132812 91.773438 C 174.132812 90.835938 173.375 90.074219 172.4375 90.074219 C 171.5 90.074219 170.742188 90.835938 170.742188 91.773438 C 170.742188 92.710938 171.5 93.46875 172.4375 93.46875 C 173.375 93.46875 174.132812 92.710938 174.132812 91.773438 Z M 174.132812 91.773438 "/>
<g fill="rgb(17.64679%, 21.569824%, 28.234863%)" fill-opacity="1">
<use xlink:href="#glyph-3-2" x="175.947013" y="94.489468"/>
</g>
<path fill-rule="nonzero" fill="rgb(17.64679%, 21.569824%, 28.234863%)" fill-opacity="1" d="M 106.53125 101.320312 C 106.53125 100.539062 105.898438 99.90625 105.117188 99.90625 C 104.339844 99.90625 103.703125 100.539062 103.703125 101.320312 C 103.703125 102.101562 104.339844 102.734375 105.117188 102.734375 C 105.898438 102.734375 106.53125 102.101562 106.53125 101.320312 Z M 106.53125 101.320312 "/>
<g fill="rgb(17.64679%, 21.569824%, 28.234863%)" fill-opacity="1">
<use xlink:href="#glyph-3-3" x="101.795079" y="110.266645"/>
</g>
<g fill="rgb(44.314575%, 50.193787%, 58.822632%)" fill-opacity="1">
<use xlink:href="#glyph-2-0" x="24.030576" y="187.219043"/>
</g>
<g fill="rgb(44.314575%, 50.193787%, 58.822632%)" fill-opacity="1">
<use xlink:href="#glyph-1-0" x="28.900211" y="184.412593"/>
</g>
<g fill="rgb(44.314575%, 50.193787%, 58.822632%)" fill-opacity="1">
<use xlink:href="#glyph-1-1" x="28.900211" y="189.918742"/>
</g>
<g fill="rgb(44.314575%, 50.193787%, 58.822632%)" fill-opacity="1">
<use xlink:href="#glyph-4-0" x="37.556009" y="187.219043"/>
</g>
<g fill="rgb(44.314575%, 50.193787%, 58.822632%)" fill-opacity="1">
<use xlink:href="#glyph-5-0" x="46.473197" y="176.047117"/>
</g>
<g fill="rgb(44.314575%, 50.193787%, 58.822632%)" fill-opacity="1">
<use xlink:href="#glyph-4-1" x="50.932788" y="182.398294"/>
</g>
<g fill="rgb(44.314575%, 50.193787%, 58.822632%)" fill-opacity="1">
<use xlink:href="#glyph-3-4" x="55.157442" y="182.398294"/>
</g>
<g fill="rgb(44.314575%, 50.193787%, 58.822632%)" fill-opacity="1">
<use xlink:href="#glyph-4-2" x="57.503942" y="182.398294"/>
</g>
<g fill="rgb(44.314575%, 50.193787%, 58.822632%)" fill-opacity="1">
<use xlink:href="#glyph-4-2" x="50.932788" y="191.840257"/>
</g>
<g fill="rgb(44.314575%, 50.193787%, 58.822632%)" fill-opacity="1">
<use xlink:href="#glyph-3-4" x="55.157442" y="191.840257"/>
</g>
<g fill="rgb(44.314575%, 50.193787%, 58.822632%)" fill-opacity="1">
<use xlink:href="#glyph-4-3" x="57.503942" y="191.840257"/>
</g>
<g fill="rgb(44.314575%, 50.193787%, 58.822632%)" fill-opacity="1">
<use xlink:href="#glyph-5-1" x="61.728592" y="176.047117"/>
</g>
<g fill="rgb(18.429565%, 52.157593%, 35.293579%)" fill-opacity="1">
<use xlink:href="#glyph-3-0" x="82.090069" y="187.219043"/>
</g>
<g fill="rgb(18.429565%, 52.157593%, 35.293579%)" fill-opacity="1">
<use xlink:href="#glyph-1-1" x="86.031869" y="188.554925"/>
</g>
<g fill="rgb(18.429565%, 52.157593%, 35.293579%)" fill-opacity="1">
<use xlink:href="#glyph-4-0" x="94.68667" y="187.219043"/>
</g>
<g fill="rgb(18.429565%, 52.157593%, 35.293579%)" fill-opacity="1">
<use xlink:href="#glyph-4-2" x="103.603528" y="187.219043"/>
<use xlink:href="#glyph-4-4" x="107.828182" y="187.219043"/>
</g>
<g fill="rgb(18.429565%, 52.157593%, 35.293579%)" fill-opacity="1">
<use xlink:href="#glyph-6-0" x="112.053137" y="184.412593"/>
</g>
<g fill="rgb(64.704895%, 10.978699%, 18.824768%)" fill-opacity="1">
<use xlink:href="#glyph-2-1" x="132.262969" y="187.219043"/>
</g>
<g fill="rgb(64.704895%, 10.978699%, 18.824768%)" fill-opacity="1">
<use xlink:href="#glyph-1-1" x="136.288573" y="184.412593"/>
</g>
<g fill="rgb(64.704895%, 10.978699%, 18.824768%)" fill-opacity="1">
<use xlink:href="#glyph-1-2" x="136.288573" y="189.918742"/>
</g>
<g fill="rgb(64.704895%, 10.978699%, 18.824768%)" fill-opacity="1">
<use xlink:href="#glyph-4-0" x="144.943374" y="187.219043"/>
</g>
<g fill="rgb(64.704895%, 10.978699%, 18.824768%)" fill-opacity="1">
<use xlink:href="#glyph-5-0" x="153.861559" y="176.047117"/>
</g>
<g fill="rgb(64.704895%, 10.978699%, 18.824768%)" fill-opacity="1">
<use xlink:href="#glyph-4-5" x="161.606483" y="182.398294"/>
</g>
<g fill="rgb(64.704895%, 10.978699%, 18.824768%)" fill-opacity="1">
<use xlink:href="#glyph-3-4" x="165.831137" y="182.398294"/>
</g>
<g fill="rgb(64.704895%, 10.978699%, 18.824768%)" fill-opacity="1">
<use xlink:href="#glyph-4-1" x="168.177637" y="182.398294"/>
</g>
<g fill="rgb(64.704895%, 10.978699%, 18.824768%)" fill-opacity="1">
<use xlink:href="#glyph-7-0" x="158.321151" y="191.840257"/>
</g>
<g fill="rgb(64.704895%, 10.978699%, 18.824768%)" fill-opacity="1">
<use xlink:href="#glyph-4-5" x="164.892305" y="191.840257"/>
</g>
<g fill="rgb(64.704895%, 10.978699%, 18.824768%)" fill-opacity="1">
<use xlink:href="#glyph-3-4" x="169.116959" y="191.840257"/>
</g>
<g fill="rgb(64.704895%, 10.978699%, 18.824768%)" fill-opacity="1">
<use xlink:href="#glyph-4-3" x="171.463459" y="191.840257"/>
</g>
<g fill="rgb(64.704895%, 10.978699%, 18.824768%)" fill-opacity="1">
<use xlink:href="#glyph-5-1" x="175.687618" y="176.047117"/>
</g>
<g fill="rgb(64.704895%, 10.978699%, 18.824768%)" fill-opacity="1">
<use xlink:href="#glyph-8-0" x="184.121933" y="187.219043"/>
<use xlink:href="#glyph-8-1" x="186.491493" y="187.219043"/>
<use xlink:href="#glyph-8-2" x="190.944356" y="187.219043"/>
<use xlink:href="#glyph-8-3" x="194.840611" y="187.219043"/>
</g>
<g fill="rgb(64.704895%, 10.978699%, 18.824768%)" fill-opacity="1">
<use xlink:href="#glyph-8-4" x="198.450611" y="187.219043"/>
<use xlink:href="#glyph-8-5" x="202.474091" y="187.219043"/>
</g>
</svg>
