<?xml version="1.0" encoding="UTF-8"?>
<svg xmlns="http://www.w3.org/2000/svg" xmlns:xlink="http://www.w3.org/1999/xlink" width="200.591pt" height="268.88pt" viewBox="0 0 200.591 268.88">
<defs>
<g>
<g id="glyph-0-0">
<path d="M 3.203125 -2.1875 L 4.296875 -3.359375 C 4.390625 -3.46875 4.453125 -3.53125 5.171875 -3.53125 L 5.171875 -3.96875 C 4.875 -3.953125 4.640625 -3.953125 4.34375 -3.953125 C 4.1875 -3.953125 3.828125 -3.953125 3.421875 -3.96875 L 3.421875 -3.53125 C 3.625 -3.53125 3.671875 -3.5 3.734375 -3.4375 L 2.90625 -2.53125 L 2.015625 -3.53125 L 2.34375 -3.53125 L 2.34375 -3.96875 C 1.796875 -3.953125 1.5625 -3.953125 1.265625 -3.953125 C 1.078125 -3.953125 0.734375 -3.953125 0.28125 -3.96875 L 0.28125 -3.53125 L 0.90625 -3.53125 L 2.328125 -1.921875 L 1.125 -0.609375 C 0.953125 -0.4375 0.640625 -0.4375 0.234375 -0.4375 L 0.234375 0 C 0.53125 -0.03125 0.765625 -0.03125 1.0625 -0.03125 C 1.234375 -0.03125 1.578125 -0.03125 1.984375 0 L 1.984375 -0.4375 C 1.84375 -0.4375 1.6875 -0.46875 1.6875 -0.53125 C 1.6875 -0.578125 1.75 -0.625 1.75 -0.640625 L 2.625 -1.578125 L 3.625 -0.4375 L 3.3125 -0.4375 L 3.3125 0 C 3.875 -0.015625 4.078125 -0.03125 4.375 -0.03125 C 4.578125 -0.03125 4.921875 -0.03125 5.375 0 L 5.375 -0.4375 L 4.75 -0.4375 Z M 3.203125 -2.1875 "/>
</g>
<g id="glyph-0-1">
<path d="M 4.671875 -3.34375 C 4.734375 -3.46875 4.765625 -3.53125 5.34375 -3.53125 L 5.34375 -3.96875 C 5.078125 -3.953125 4.859375 -3.953125 4.609375 -3.953125 C 4.34375 -3.953125 4.0625 -3.953125 3.8125 -3.96875 L 3.8125 -3.53125 C 3.8125 -3.53125 4.203125 -3.53125 4.203125 -3.421875 C 4.203125 -3.421875 4.203125 -3.40625 4.15625 -3.328125 L 3.09375 -1.140625 L 1.921875 -3.53125 L 2.375 -3.53125 L 2.375 -3.96875 C 1.890625 -3.953125 1.5625 -3.953125 1.28125 -3.953125 C 0.953125 -3.953125 0.78125 -3.953125 0.25 -3.96875 L 0.25 -3.53125 L 0.8125 -3.53125 L 2.53125 0 C 2.21875 0.734375 1.875 1.4375 1.1875 1.4375 C 1.140625 1.4375 1.078125 1.4375 1.015625 1.40625 C 1.171875 1.328125 1.28125 1.15625 1.28125 0.9375 C 1.28125 0.59375 1.03125 0.40625 0.75 0.40625 C 0.453125 0.40625 0.203125 0.59375 0.203125 0.9375 C 0.203125 1.421875 0.65625 1.796875 1.1875 1.796875 C 1.875 1.796875 2.4375 1.265625 2.71875 0.6875 Z M 4.671875 -3.34375 "/>
</g>
<g id="glyph-1-0">
<path d="M 1.34375 -0.734375 C 1.125 -0.375 0.921875 -0.265625 0.578125 -0.234375 C 0.5 -0.234375 0.4375 -0.234375 0.4375 -0.09375 C 0.4375 -0.03125 0.484375 0 0.515625 0 C 0.6875 0 0.890625 -0.03125 1.0625 -0.03125 C 1.203125 -0.03125 1.546875 0 1.6875 0 C 1.765625 0 1.828125 -0.03125 1.828125 -0.15625 C 1.828125 -0.234375 1.75 -0.234375 1.71875 -0.234375 C 1.578125 -0.25 1.453125 -0.28125 1.453125 -0.40625 C 1.453125 -0.484375 1.515625 -0.578125 1.53125 -0.625 L 2.015625 -1.359375 L 3.8125 -1.359375 L 3.96875 -0.390625 C 3.96875 -0.234375 3.625 -0.234375 3.5625 -0.234375 C 3.484375 -0.234375 3.390625 -0.234375 3.390625 -0.09375 C 3.390625 -0.0625 3.421875 0 3.5 0 C 3.671875 0 4.109375 -0.03125 4.296875 -0.03125 C 4.40625 -0.03125 4.53125 -0.015625 4.640625 -0.015625 C 4.765625 -0.015625 4.890625 0 5.015625 0 C 5.046875 0 5.140625 0 5.140625 -0.15625 C 5.140625 -0.234375 5.0625 -0.234375 4.96875 -0.234375 C 4.609375 -0.234375 4.59375 -0.28125 4.578125 -0.4375 L 3.96875 -4.09375 C 3.953125 -4.203125 3.953125 -4.265625 3.8125 -4.265625 C 3.6875 -4.265625 3.65625 -4.21875 3.609375 -4.125 Z M 2.171875 -1.59375 L 3.46875 -3.53125 L 3.78125 -1.59375 Z M 2.171875 -1.59375 "/>
</g>
<g id="glyph-1-1">
<path d="M 1.25 -0.5 C 1.203125 -0.28125 1.1875 -0.234375 0.734375 -0.234375 C 0.609375 -0.234375 0.59375 -0.234375 0.578125 -0.21875 C 0.546875 -0.203125 0.515625 -0.125 0.515625 -0.078125 C 0.53125 0 0.59375 0 0.703125 0 L 3.140625 0 C 4.171875 0 4.984375 -0.671875 4.984375 -1.265625 C 4.984375 -1.640625 4.65625 -2.03125 3.921875 -2.140625 C 4.609375 -2.25 5.28125 -2.6875 5.28125 -3.21875 C 5.28125 -3.65625 4.8125 -4.078125 3.96875 -4.078125 L 1.6875 -4.078125 C 1.5625 -4.078125 1.484375 -4.078125 1.484375 -3.921875 C 1.484375 -3.84375 1.5625 -3.84375 1.671875 -3.84375 C 1.78125 -3.84375 1.9375 -3.84375 2.0625 -3.796875 C 2.0625 -3.734375 2.0625 -3.703125 2.03125 -3.609375 Z M 2.234375 -2.21875 L 2.578125 -3.640625 C 2.625 -3.828125 2.640625 -3.84375 2.890625 -3.84375 L 3.875 -3.84375 C 4.5 -3.84375 4.671875 -3.46875 4.671875 -3.21875 C 4.671875 -2.71875 4.046875 -2.21875 3.3125 -2.21875 Z M 1.953125 -0.234375 C 1.828125 -0.234375 1.828125 -0.234375 1.75 -0.25 L 2.171875 -2.015625 L 3.484375 -2.015625 C 4.234375 -2.015625 4.359375 -1.546875 4.359375 -1.296875 C 4.359375 -0.734375 3.71875 -0.234375 2.984375 -0.234375 Z M 1.953125 -0.234375 "/>
</g>
<g id="glyph-1-2">
<path d="M 5.3125 -4.03125 C 5.3125 -4.078125 5.328125 -4.109375 5.328125 -4.125 C 5.328125 -4.125 5.3125 -4.203125 5.234375 -4.203125 C 5.1875 -4.203125 5.1875 -4.203125 5.125 -4.125 L 4.671875 -3.671875 C 4.34375 -4.0625 3.921875 -4.203125 3.484375 -4.203125 C 1.96875 -4.203125 0.5 -2.921875 0.5 -1.59375 C 0.5 -0.5625 1.34375 0.125 2.453125 0.125 C 3.078125 0.125 3.609375 -0.125 3.96875 -0.40625 C 4.5625 -0.875 4.65625 -1.40625 4.65625 -1.4375 C 4.65625 -1.5 4.609375 -1.515625 4.546875 -1.515625 C 4.484375 -1.515625 4.453125 -1.5 4.4375 -1.4375 C 4.140625 -0.5 3.21875 -0.109375 2.546875 -0.109375 C 2.109375 -0.109375 1.140625 -0.296875 1.140625 -1.421875 C 1.140625 -1.671875 1.1875 -2.484375 1.84375 -3.21875 C 2.15625 -3.5625 2.796875 -3.96875 3.546875 -3.96875 C 4.3125 -3.96875 4.71875 -3.421875 4.71875 -2.78125 C 4.71875 -2.6875 4.703125 -2.578125 4.703125 -2.5625 C 4.703125 -2.484375 4.78125 -2.484375 4.8125 -2.484375 C 4.890625 -2.484375 4.921875 -2.484375 4.953125 -2.609375 Z M 5.3125 -4.03125 "/>
</g>
<g id="glyph-1-3">
<path d="M 2.171875 -1.828125 L 3.359375 -1.828125 C 4.25 -1.828125 5.25 -2.40625 5.25 -3.140625 C 5.25 -3.65625 4.703125 -4.078125 3.875 -4.078125 L 1.671875 -4.078125 C 1.5625 -4.078125 1.484375 -4.078125 1.484375 -3.921875 C 1.484375 -3.84375 1.5625 -3.84375 1.671875 -3.84375 C 1.78125 -3.84375 1.921875 -3.84375 2.046875 -3.796875 C 2.046875 -3.734375 2.046875 -3.703125 2.03125 -3.609375 L 1.25 -0.5 C 1.1875 -0.28125 1.1875 -0.234375 0.734375 -0.234375 C 0.59375 -0.234375 0.515625 -0.234375 0.515625 -0.09375 C 0.515625 -0.046875 0.5625 0 0.625 0 C 0.75 0 0.890625 -0.015625 1.015625 -0.015625 C 1.15625 -0.015625 1.296875 -0.03125 1.421875 -0.03125 C 1.5625 -0.03125 1.6875 -0.015625 1.828125 -0.015625 C 1.96875 -0.015625 2.109375 0 2.234375 0 C 2.28125 0 2.375 0 2.375 -0.15625 C 2.375 -0.234375 2.296875 -0.234375 2.171875 -0.234375 C 2.171875 -0.234375 2.0625 -0.234375 1.953125 -0.25 C 1.828125 -0.265625 1.796875 -0.265625 1.796875 -0.328125 C 1.796875 -0.359375 1.796875 -0.375 1.828125 -0.4375 Z M 2.59375 -3.640625 C 2.640625 -3.828125 2.65625 -3.84375 2.90625 -3.84375 L 3.671875 -3.84375 C 4.21875 -3.84375 4.609375 -3.6875 4.609375 -3.234375 C 4.609375 -3.0625 4.53125 -2.5625 4.203125 -2.3125 C 3.9375 -2.109375 3.5625 -2.046875 3.21875 -2.046875 L 2.203125 -2.046875 Z M 2.59375 -3.640625 "/>
</g>
<g id="glyph-2-0">
<path d="M 6.21875 -3.421875 C 6.21875 -4.71875 5.3125 -5.59375 4.03125 -5.59375 C 2.171875 -5.59375 0.40625 -3.765625 0.40625 -1.984375 C 0.40625 -0.765625 1.265625 0.171875 2.59375 0.171875 C 4.375 0.171875 6.21875 -1.546875 6.21875 -3.421875 Z M 2.671875 -0.09375 C 1.859375 -0.09375 1.1875 -0.671875 1.1875 -1.8125 C 1.1875 -1.9375 1.1875 -3.265625 2.109375 -4.390625 C 2.40625 -4.75 3.125 -5.359375 3.984375 -5.359375 C 4.765625 -5.359375 5.46875 -4.796875 5.46875 -3.703125 C 5.46875 -3.265625 5.3125 -2.015625 4.484375 -1.046875 C 4.03125 -0.5 3.34375 -0.09375 2.671875 -0.09375 Z M 2.671875 -0.09375 "/>
</g>
<g id="glyph-2-1">
<path d="M 2.5 -2.484375 L 3.953125 -2.484375 C 5.09375 -2.484375 6.296875 -3.28125 6.296875 -4.21875 C 6.296875 -4.890625 5.65625 -5.4375 4.625 -5.4375 L 1.953125 -5.4375 C 1.8125 -5.4375 1.703125 -5.4375 1.703125 -5.28125 C 1.703125 -5.171875 1.8125 -5.171875 1.9375 -5.171875 C 2.1875 -5.171875 2.421875 -5.171875 2.421875 -5.046875 C 2.421875 -5.015625 2.421875 -5 2.390625 -4.90625 L 1.328125 -0.625 C 1.25 -0.328125 1.234375 -0.265625 0.671875 -0.265625 C 0.5 -0.265625 0.40625 -0.265625 0.40625 -0.109375 C 0.40625 -0.078125 0.421875 0 0.53125 0 C 0.6875 0 0.875 -0.015625 1.03125 -0.03125 L 1.53125 -0.03125 C 2.296875 -0.03125 2.5 0 2.5625 0 C 2.609375 0 2.71875 0 2.71875 -0.15625 C 2.71875 -0.265625 2.609375 -0.265625 2.484375 -0.265625 C 2.453125 -0.265625 2.3125 -0.265625 2.171875 -0.28125 C 2.015625 -0.296875 2 -0.3125 2 -0.390625 C 2 -0.421875 2.015625 -0.484375 2.015625 -0.515625 Z M 3.078125 -4.875 C 3.15625 -5.140625 3.171875 -5.171875 3.484375 -5.171875 L 4.359375 -5.171875 C 5.015625 -5.171875 5.515625 -4.984375 5.515625 -4.390625 C 5.515625 -4.28125 5.484375 -3.578125 5.03125 -3.140625 C 4.921875 -3.015625 4.53125 -2.71875 3.75 -2.71875 L 2.546875 -2.71875 Z M 3.078125 -4.875 "/>
</g>
<g id="glyph-2-2">
<path d="M 3.8125 -3.90625 C 3.8125 -4.90625 3.421875 -5.59375 2.765625 -5.59375 C 1.578125 -5.59375 0.34375 -3.390625 0.34375 -1.609375 C 0.34375 -0.84375 0.609375 0.078125 1.40625 0.078125 C 2.5625 0.078125 3.8125 -2.078125 3.8125 -3.90625 Z M 1.234375 -2.890625 C 1.609375 -4.5 2.265625 -5.375 2.765625 -5.375 C 3.234375 -5.375 3.234375 -4.53125 3.234375 -4.375 C 3.234375 -3.921875 3.09375 -3.28125 3 -2.890625 Z M 2.921875 -2.625 C 2.546875 -1.03125 1.90625 -0.140625 1.40625 -0.140625 C 0.984375 -0.140625 0.9375 -0.78125 0.9375 -1.140625 C 0.9375 -1.640625 1.078125 -2.296875 1.171875 -2.625 Z M 2.921875 -2.625 "/>
</g>
<g id="glyph-3-0">
<path d="M 5.8125 -2.640625 C 5.9375 -2.640625 6.09375 -2.640625 6.09375 -2.828125 C 6.09375 -3.015625 5.90625 -3.015625 5.78125 -3.015625 L 0.78125 -3.015625 C 0.65625 -3.015625 0.46875 -3.015625 0.46875 -2.828125 C 0.46875 -2.640625 0.625 -2.640625 0.75 -2.640625 Z M 5.78125 -0.96875 C 5.90625 -0.96875 6.09375 -0.96875 6.09375 -1.140625 C 6.09375 -1.328125 5.9375 -1.328125 5.8125 -1.328125 L 0.75 -1.328125 C 0.625 -1.328125 0.46875 -1.328125 0.46875 -1.140625 C 0.46875 -0.96875 0.65625 -0.96875 0.78125 -0.96875 Z M 5.78125 -0.96875 "/>
</g>
<g id="glyph-3-1">
<path d="M 2.015625 -2.65625 C 2.640625 -2.65625 3.03125 -2.1875 3.03125 -1.359375 C 3.03125 -0.359375 2.46875 -0.078125 2.046875 -0.078125 C 1.609375 -0.078125 1.015625 -0.234375 0.734375 -0.65625 C 1.03125 -0.65625 1.21875 -0.828125 1.21875 -1.09375 C 1.21875 -1.359375 1.046875 -1.53125 0.78125 -1.53125 C 0.578125 -1.53125 0.34375 -1.40625 0.34375 -1.078125 C 0.34375 -0.328125 1.15625 0.171875 2.0625 0.171875 C 3.125 0.171875 3.859375 -0.5625 3.859375 -1.359375 C 3.859375 -2.015625 3.34375 -2.625 2.53125 -2.796875 C 3.15625 -3.015625 3.625 -3.5625 3.625 -4.203125 C 3.625 -4.828125 2.90625 -5.28125 2.078125 -5.28125 C 1.234375 -5.28125 0.59375 -4.828125 0.59375 -4.21875 C 0.59375 -3.921875 0.78125 -3.796875 1 -3.796875 C 1.234375 -3.796875 1.40625 -3.984375 1.40625 -4.203125 C 1.40625 -4.5 1.140625 -4.609375 0.96875 -4.625 C 1.296875 -5.0625 1.921875 -5.078125 2.0625 -5.078125 C 2.265625 -5.078125 2.875 -5.015625 2.875 -4.203125 C 2.875 -3.640625 2.640625 -3.3125 2.53125 -3.1875 C 2.296875 -2.9375 2.109375 -2.921875 1.625 -2.890625 C 1.46875 -2.875 1.40625 -2.875 1.40625 -2.765625 C 1.40625 -2.65625 1.484375 -2.65625 1.609375 -2.65625 Z M 2.015625 -2.65625 "/>
</g>
<g id="glyph-3-2">
<path d="M 2.25 -1.625 C 2.375 -1.734375 2.703125 -2 2.828125 -2.109375 C 3.328125 -2.5625 3.796875 -3 3.796875 -3.734375 C 3.796875 -4.671875 3 -5.28125 2 -5.28125 C 1.046875 -5.28125 0.421875 -4.5625 0.421875 -3.859375 C 0.421875 -3.46875 0.734375 -3.40625 0.84375 -3.40625 C 1.015625 -3.40625 1.25 -3.53125 1.25 -3.828125 C 1.25 -4.25 0.859375 -4.25 0.765625 -4.25 C 1 -4.828125 1.53125 -5.03125 1.921875 -5.03125 C 2.65625 -5.03125 3.03125 -4.390625 3.03125 -3.734375 C 3.03125 -2.90625 2.453125 -2.296875 1.515625 -1.34375 L 0.515625 -0.296875 C 0.421875 -0.21875 0.421875 -0.203125 0.421875 0 L 3.5625 0 L 3.796875 -1.421875 L 3.546875 -1.421875 C 3.515625 -1.265625 3.453125 -0.859375 3.359375 -0.71875 C 3.3125 -0.65625 2.71875 -0.65625 2.578125 -0.65625 L 1.171875 -0.65625 Z M 2.25 -1.625 "/>
</g>
<g id="glyph-3-3">
<path d="M 3.890625 -2.53125 C 3.890625 -3.390625 3.796875 -3.90625 3.546875 -4.40625 C 3.1875 -5.109375 2.546875 -5.28125 2.109375 -5.28125 C 1.109375 -5.28125 0.734375 -4.546875 0.625 -4.3125 C 0.34375 -3.734375 0.328125 -2.953125 0.328125 -2.53125 C 0.328125 -2.015625 0.34375 -1.203125 0.734375 -0.578125 C 1.09375 0.015625 1.6875 0.171875 2.109375 0.171875 C 2.484375 0.171875 3.171875 0.046875 3.578125 -0.734375 C 3.859375 -1.3125 3.890625 -2.015625 3.890625 -2.53125 Z M 2.109375 -0.0625 C 1.84375 -0.0625 1.28125 -0.1875 1.125 -1.015625 C 1.03125 -1.46875 1.03125 -2.21875 1.03125 -2.625 C 1.03125 -3.1875 1.03125 -3.734375 1.125 -4.171875 C 1.28125 -4.984375 1.90625 -5.0625 2.109375 -5.0625 C 2.375 -5.0625 2.921875 -4.9375 3.078125 -4.203125 C 3.1875 -3.765625 3.1875 -3.171875 3.1875 -2.625 C 3.1875 -2.15625 3.1875 -1.453125 3.078125 -1 C 2.921875 -0.171875 2.375 -0.0625 2.109375 -0.0625 Z M 2.109375 -0.0625 "/>
</g>
<g id="glyph-3-4">
<path d="M 3.140625 -5.140625 C 3.140625 -5.3125 3.140625 -5.375 2.96875 -5.375 C 2.859375 -5.375 2.859375 -5.359375 2.78125 -5.25 L 0.234375 -1.5625 L 0.234375 -1.296875 L 2.484375 -1.296875 L 2.484375 -0.640625 C 2.484375 -0.34375 2.453125 -0.265625 1.84375 -0.265625 L 1.65625 -0.265625 L 1.65625 0 C 2.34375 -0.03125 2.359375 -0.03125 2.8125 -0.03125 C 3.265625 -0.03125 3.28125 -0.03125 3.953125 0 L 3.953125 -0.265625 L 3.765625 -0.265625 C 3.15625 -0.265625 3.140625 -0.34375 3.140625 -0.640625 L 3.140625 -1.296875 L 3.984375 -1.296875 L 3.984375 -1.5625 L 3.140625 -1.5625 Z M 2.53125 -4.5 L 2.53125 -1.5625 L 0.515625 -1.5625 Z M 2.53125 -4.5 "/>
</g>
<g id="glyph-3-5">
<path d="M 1.09375 -2.625 C 1.09375 -3.296875 1.15625 -3.875 1.4375 -4.359375 C 1.671875 -4.75 2.078125 -5.078125 2.578125 -5.078125 C 2.75 -5.078125 3.109375 -5.0625 3.296875 -4.78125 C 2.9375 -4.765625 2.90625 -4.5 2.90625 -4.40625 C 2.90625 -4.171875 3.078125 -4.03125 3.28125 -4.03125 C 3.421875 -4.03125 3.65625 -4.125 3.65625 -4.421875 C 3.65625 -4.90625 3.296875 -5.28125 2.578125 -5.28125 C 1.46875 -5.28125 0.34375 -4.234375 0.34375 -2.515625 C 0.34375 -0.359375 1.359375 0.171875 2.125 0.171875 C 2.5 0.171875 2.921875 0.0625 3.28125 -0.28125 C 3.59375 -0.59375 3.859375 -0.921875 3.859375 -1.609375 C 3.859375 -2.65625 3.078125 -3.390625 2.1875 -3.390625 C 1.625 -3.390625 1.28125 -3.015625 1.09375 -2.625 Z M 2.125 -0.078125 C 1.703125 -0.078125 1.4375 -0.359375 1.3125 -0.59375 C 1.140625 -0.953125 1.125 -1.484375 1.125 -1.796875 C 1.125 -2.578125 1.546875 -3.171875 2.15625 -3.171875 C 2.5625 -3.171875 2.796875 -2.953125 2.953125 -2.6875 C 3.125 -2.390625 3.125 -2.03125 3.125 -1.625 C 3.125 -1.21875 3.125 -0.859375 2.953125 -0.578125 C 2.75 -0.21875 2.46875 -0.078125 2.125 -0.078125 Z M 2.125 -0.078125 "/>
</g>
<g id="glyph-4-0">
<path d="M 4.59375 -1.734375 C 4.59375 -2.734375 3.890625 -3.625 2.4375 -3.625 C 0.96875 -3.625 0.265625 -2.734375 0.265625 -1.734375 C 0.265625 -0.78125 0.96875 0.0625 2.4375 0.0625 C 3.90625 0.0625 4.59375 -0.796875 4.59375 -1.734375 Z M 2.4375 -0.3125 C 1.34375 -0.3125 1.34375 -1.140625 1.34375 -1.828125 C 1.34375 -2.484375 1.34375 -3.28125 2.4375 -3.28125 C 3.515625 -3.28125 3.515625 -2.46875 3.515625 -1.828125 C 3.515625 -1.140625 3.515625 -0.3125 2.4375 -0.3125 Z M 2.4375 -0.3125 "/>
</g>
<g id="glyph-4-1">
<path d="M 1.8125 -1.703125 C 1.8125 -2.328125 2.0625 -3.234375 2.828125 -3.25 C 2.828125 -3.25 2.703125 -3.125 2.703125 -2.890625 C 2.703125 -2.578125 2.921875 -2.375 3.21875 -2.375 C 3.515625 -2.375 3.75 -2.578125 3.75 -2.890625 C 3.75 -3.328125 3.296875 -3.59375 2.84375 -3.59375 C 2.15625 -3.59375 1.84375 -3.03125 1.71875 -2.734375 L 1.703125 -2.734375 L 1.703125 -3.59375 L 0.359375 -3.515625 L 0.359375 -3.109375 C 0.828125 -3.109375 0.890625 -3.109375 0.890625 -2.796875 L 0.890625 -0.40625 L 0.359375 -0.40625 L 0.359375 0 C 0.828125 -0.03125 0.90625 -0.03125 1.390625 -0.03125 C 1.84375 -0.03125 1.859375 -0.03125 2.46875 0 L 2.46875 -0.40625 L 1.8125 -0.40625 Z M 1.8125 -1.703125 "/>
</g>
<g id="glyph-5-0">
<path d="M 2.09375 18.71875 L 4.34375 18.71875 L 4.34375 18.234375 L 2.59375 18.234375 L 2.59375 0.140625 L 4.34375 0.140625 L 4.34375 -0.359375 L 2.09375 -0.359375 Z M 2.09375 18.71875 "/>
</g>
<g id="glyph-5-1">
<path d="M 1.859375 18.234375 L 0.109375 18.234375 L 0.109375 18.71875 L 2.359375 18.71875 L 2.359375 -0.359375 L 0.109375 -0.359375 L 0.109375 0.140625 L 1.859375 0.140625 Z M 1.859375 18.234375 "/>
</g>
<g id="glyph-6-0">
<path d="M 3.25 -1.5 C 3.25 -2.25 2.640625 -2.84375 1.90625 -2.84375 C 1.15625 -2.84375 0.5625 -2.25 0.5625 -1.5 C 0.5625 -0.734375 1.15625 -0.140625 1.90625 -0.140625 C 2.640625 -0.140625 3.25 -0.734375 3.25 -1.5 Z M 1.90625 -0.453125 C 1.328125 -0.453125 0.859375 -0.90625 0.859375 -1.5 C 0.859375 -2.078125 1.328125 -2.53125 1.90625 -2.53125 C 2.484375 -2.53125 2.9375 -2.078125 2.9375 -1.5 C 2.9375 -0.90625 2.484375 -0.453125 1.90625 -0.453125 Z M 1.90625 -0.453125 "/>
</g>
</g>
</defs>
<path fill="none" stroke-width="0.3985" stroke-linecap="butt" stroke-linejoin="miter" stroke="rgb(75%, 75%, 75%)" stroke-opacity="1" stroke-dasharray="0.3985 0.99628" stroke-miterlimit="10" d="M -28.347034 -0.000633347 L 155.906797 -0.000633347 " transform="matrix(0.997965, 0, 0, -0.997965, 36.441696, 200.729837)"/>
<path fill="none" stroke-width="0.3985" stroke-linecap="butt" stroke-linejoin="miter" stroke="rgb(75%, 75%, 75%)" stroke-opacity="1" stroke-dasharray="0.3985 0.99628" stroke-miterlimit="10" d="M -0.00029064 -28.347377 L -0.00029064 192.758786 " transform="matrix(0.997965, 0, 0, -0.997965, 36.441696, 200.729837)"/>
<path fill="none" stroke-width="0.3985" stroke-linecap="butt" stroke-linejoin="miter" stroke="rgb(75%, 75%, 75%)" stroke-opacity="1" stroke-dasharray="0.3985 0.99628" stroke-miterlimit="10" d="M 42.519824 56.692853 L 155.906797 56.692853 " transform="matrix(0.997965, 0, 0, -0.997965, 36.441696, 200.729837)"/>
<path fill="none" stroke-width="0.3985" stroke-linecap="butt" stroke-linejoin="miter" stroke="rgb(75%, 75%, 75%)" stroke-opacity="1" stroke-dasharray="0.3985 0.99628" stroke-miterlimit="10" d="M 85.039939 14.172738 L 85.039939 192.758786 " transform="matrix(0.997965, 0, 0, -0.997965, 36.441696, 200.729837)"/>
<path fill="none" stroke-width="0.3985" stroke-linecap="butt" stroke-linejoin="miter" stroke="rgb(75%, 75%, 75%)" stroke-opacity="1" stroke-dasharray="0.3985 0.99628" stroke-miterlimit="10" d="M 48.215007 35.434753 L 146.414826 92.128239 " transform="matrix(0.997965, 0, 0, -0.997965, 36.441696, 200.729837)"/>
<path fill="none" stroke-width="0.3985" stroke-linecap="butt" stroke-linejoin="miter" stroke="rgb(75%, 75%, 75%)" stroke-opacity="1" stroke-dasharray="0.3985 0.99628" stroke-miterlimit="10" d="M 106.301953 19.871835 L 17.006972 174.530288 " transform="matrix(0.997965, 0, 0, -0.997965, 36.441696, 200.729837)"/>
<path fill="none" stroke-width="0.79701" stroke-linecap="butt" stroke-linejoin="miter" stroke="rgb(16.862488%, 42.353821%, 69.018555%)" stroke-opacity="1" stroke-miterlimit="10" d="M -0.00029064 -0.000633347 L 23.684623 -0.000633347 " transform="matrix(0.997965, 0, 0, -0.997965, 36.441696, 200.729837)"/>
<path fill-rule="nonzero" fill="rgb(16.862488%, 42.353821%, 69.018555%)" fill-opacity="1" d="M 64.730469 200.730469 C 63.351562 200.472656 61.113281 199.695312 59.5625 198.792969 L 59.5625 202.667969 C 61.113281 201.765625 63.351562 200.988281 64.730469 200.730469 "/>
<g fill="rgb(16.862488%, 42.353821%, 69.018555%)" fill-opacity="1">
<use xlink:href="#glyph-0-0" x="58.930841" y="208.419158"/>
</g>
<g fill="rgb(16.862488%, 42.353821%, 69.018555%)" fill-opacity="1">
<use xlink:href="#glyph-1-0" x="64.519446" y="209.413132"/>
</g>
<path fill="none" stroke-width="0.79701" stroke-linecap="butt" stroke-linejoin="miter" stroke="rgb(16.862488%, 42.353821%, 69.018555%)" stroke-opacity="1" stroke-miterlimit="10" d="M -0.00029064 -0.000633347 L -0.00029064 23.68428 " transform="matrix(0.997965, 0, 0, -0.997965, 36.441696, 200.729837)"/>
<path fill-rule="nonzero" fill="rgb(16.862488%, 42.353821%, 69.018555%)" fill-opacity="1" d="M 36.441406 172.441406 C 36.183594 173.820312 35.40625 176.058594 34.503906 177.609375 L 38.378906 177.609375 C 37.476562 176.058594 36.699219 173.820312 36.441406 172.441406 "/>
<g fill="rgb(16.862488%, 42.353821%, 69.018555%)" fill-opacity="1">
<use xlink:href="#glyph-0-1" x="21.131913" y="173.560235"/>
</g>
<g fill="rgb(16.862488%, 42.353821%, 69.018555%)" fill-opacity="1">
<use xlink:href="#glyph-1-0" x="26.720518" y="174.554208"/>
</g>
<path fill="none" stroke-width="0.79701" stroke-linecap="butt" stroke-linejoin="miter" stroke="rgb(64.704895%, 10.978699%, 18.824768%)" stroke-opacity="1" stroke-miterlimit="10" d="M 85.039939 56.692853 L 108.724852 56.692853 " transform="matrix(0.997965, 0, 0, -0.997965, 36.441696, 200.729837)"/>
<path fill-rule="nonzero" fill="rgb(64.704895%, 10.978699%, 18.824768%)" fill-opacity="1" d="M 149.597656 144.152344 C 148.21875 143.894531 145.980469 143.117188 144.429688 142.210938 L 144.429688 146.089844 C 145.980469 145.1875 148.21875 144.410156 149.597656 144.152344 "/>
<g fill="rgb(64.704895%, 10.978699%, 18.824768%)" fill-opacity="1">
<use xlink:href="#glyph-0-0" x="153.308408" y="145.644155"/>
</g>
<g fill="rgb(64.704895%, 10.978699%, 18.824768%)" fill-opacity="1">
<use xlink:href="#glyph-1-1" x="158.896015" y="146.638128"/>
</g>
<path fill="none" stroke-width="0.79701" stroke-linecap="butt" stroke-linejoin="miter" stroke="rgb(64.704895%, 10.978699%, 18.824768%)" stroke-opacity="1" stroke-miterlimit="10" d="M 85.039939 56.692853 L 85.039939 80.377766 " transform="matrix(0.997965, 0, 0, -0.997965, 36.441696, 200.729837)"/>
<path fill-rule="nonzero" fill="rgb(64.704895%, 10.978699%, 18.824768%)" fill-opacity="1" d="M 121.308594 115.863281 C 121.050781 117.242188 120.273438 119.480469 119.371094 121.03125 L 123.246094 121.03125 C 122.34375 119.480469 121.566406 117.242188 121.308594 115.863281 "/>
<g fill="rgb(64.704895%, 10.978699%, 18.824768%)" fill-opacity="1">
<use xlink:href="#glyph-0-1" x="105.698483" y="116.982595"/>
</g>
<g fill="rgb(64.704895%, 10.978699%, 18.824768%)" fill-opacity="1">
<use xlink:href="#glyph-1-1" x="111.28609" y="117.976569"/>
</g>
<path fill="none" stroke-width="0.79701" stroke-linecap="butt" stroke-linejoin="miter" stroke="rgb(18.429565%, 52.157593%, 35.293579%)" stroke-opacity="1" stroke-miterlimit="10" d="M 85.039939 56.692853 L 105.550424 68.537267 " transform="matrix(0.997965, 0, 0, -0.997965, 36.441696, 200.729837)"/>
<path fill-rule="nonzero" fill="rgb(18.429565%, 52.157593%, 35.293579%)" fill-opacity="1" d="M 145.808594 130.007812 C 144.484375 130.472656 142.15625 130.921875 140.363281 130.914062 L 142.300781 134.269531 C 143.191406 132.710938 144.742188 130.921875 145.808594 130.007812 "/>
<g fill="rgb(18.429565%, 52.157593%, 35.293579%)" fill-opacity="1">
<use xlink:href="#glyph-0-0" x="149.518136" y="137.69636"/>
</g>
<g fill="rgb(18.429565%, 52.157593%, 35.293579%)" fill-opacity="1">
<use xlink:href="#glyph-1-2" x="155.106741" y="138.691332"/>
</g>
<path fill="none" stroke-width="0.79701" stroke-linecap="butt" stroke-linejoin="miter" stroke="rgb(18.429565%, 52.157593%, 35.293579%)" stroke-opacity="1" stroke-miterlimit="10" d="M 85.039939 56.692853 L 73.199439 77.203338 " transform="matrix(0.997965, 0, 0, -0.997965, 36.441696, 200.729837)"/>
<path fill-rule="nonzero" fill="rgb(18.429565%, 52.157593%, 35.293579%)" fill-opacity="1" d="M 107.164062 119.652344 C 107.628906 120.976562 108.078125 123.304688 108.070312 125.097656 L 111.429688 123.160156 C 109.871094 122.269531 108.078125 120.71875 107.164062 119.652344 "/>
<g fill="rgb(18.429565%, 52.157593%, 35.293579%)" fill-opacity="1">
<use xlink:href="#glyph-0-1" x="91.682063" y="127.342472"/>
</g>
<g fill="rgb(18.429565%, 52.157593%, 35.293579%)" fill-opacity="1">
<use xlink:href="#glyph-1-2" x="97.270668" y="128.336445"/>
</g>
<path fill="none" stroke-width="0.79701" stroke-linecap="butt" stroke-linejoin="miter" stroke="rgb(44.314575%, 50.193787%, 58.822632%)" stroke-opacity="1" stroke-dasharray="2.98883 1.99255" stroke-miterlimit="10" d="M -0.00029064 -0.000633347 L 81.160952 54.105557 " transform="matrix(0.997965, 0, 0, -0.997965, 36.441696, 200.729837)"/>
<path fill-rule="nonzero" fill="rgb(44.314575%, 50.193787%, 58.822632%)" fill-opacity="1" d="M 121.308594 144.152344 C 120.019531 144.703125 117.722656 145.296875 115.933594 145.40625 L 118.082031 148.632812 C 118.871094 147.019531 120.304688 145.132812 121.308594 144.152344 "/>
<path fill-rule="nonzero" fill="rgb(17.64679%, 21.569824%, 28.234863%)" fill-opacity="1" d="M 38.140625 200.730469 C 38.140625 199.792969 37.378906 199.03125 36.441406 199.03125 C 35.503906 199.03125 34.746094 199.792969 34.746094 200.730469 C 34.746094 201.667969 35.503906 202.425781 36.441406 202.425781 C 37.378906 202.425781 38.140625 201.667969 38.140625 200.730469 Z M 38.140625 200.730469 "/>
<g fill="rgb(17.64679%, 21.569824%, 28.234863%)" fill-opacity="1">
<use xlink:href="#glyph-2-0" x="20.507186" y="209.677592"/>
</g>
<g fill="rgb(17.64679%, 21.569824%, 28.234863%)" fill-opacity="1">
<use xlink:href="#glyph-1-0" x="26.919113" y="211.014866"/>
</g>
<path fill-rule="nonzero" fill="rgb(17.64679%, 21.569824%, 28.234863%)" fill-opacity="1" d="M 123.007812 144.152344 C 123.007812 143.214844 122.246094 142.453125 121.308594 142.453125 C 120.371094 142.453125 119.613281 143.214844 119.613281 144.152344 C 119.613281 145.089844 120.371094 145.847656 121.308594 145.847656 C 122.246094 145.847656 123.007812 145.089844 123.007812 144.152344 Z M 123.007812 144.152344 "/>
<g fill="rgb(17.64679%, 21.569824%, 28.234863%)" fill-opacity="1">
<use xlink:href="#glyph-2-0" x="119.989345" y="153.100951"/>
</g>
<g fill="rgb(17.64679%, 21.569824%, 28.234863%)" fill-opacity="1">
<use xlink:href="#glyph-1-1" x="126.401271" y="154.437226"/>
</g>
<g fill="rgb(17.64679%, 21.569824%, 28.234863%)" fill-opacity="1">
<use xlink:href="#glyph-3-0" x="135.058619" y="153.100951"/>
</g>
<g fill="rgb(17.64679%, 21.569824%, 28.234863%)" fill-opacity="1">
<use xlink:href="#glyph-2-0" x="143.978102" y="153.100951"/>
</g>
<g fill="rgb(17.64679%, 21.569824%, 28.234863%)" fill-opacity="1">
<use xlink:href="#glyph-1-2" x="150.392354" y="154.437226"/>
</g>
<path fill="none" stroke-width="0.3985" stroke-linecap="butt" stroke-linejoin="miter" stroke="rgb(58.430481%, 71.174622%, 84.509277%)" stroke-opacity="1" stroke-miterlimit="10" d="M -0.00029064 -0.000633347 L 111.398261 167.097194 " transform="matrix(0.997965, 0, 0, -0.997965, 36.441696, 200.729837)"/>
<path fill-rule="nonzero" fill="rgb(58.430481%, 71.174622%, 84.509277%)" fill-opacity="1" d="M 149.597656 30.996094 C 148.84375 31.765625 147.390625 32.871094 146.152344 33.476562 L 148.632812 35.132812 C 148.714844 33.753906 149.175781 31.988281 149.597656 30.996094 "/>
<path fill="none" stroke-width="0.3985" stroke-linecap="butt" stroke-linejoin="miter" stroke="rgb(82.351685%, 55.488586%, 59.411621%)" stroke-opacity="1" stroke-miterlimit="10" d="M 85.039939 56.692853 L 112.517726 166.600089 " transform="matrix(0.997965, 0, 0, -0.997965, 36.441696, 200.729837)"/>
<path fill-rule="nonzero" fill="rgb(82.351685%, 55.488586%, 59.411621%)" fill-opacity="1" d="M 149.597656 30.996094 C 149.148438 31.976562 148.152344 33.503906 147.1875 34.492188 L 150.082031 35.214844 C 149.695312 33.890625 149.535156 32.070312 149.597656 30.996094 "/>
<path fill-rule="nonzero" fill="rgb(17.64679%, 21.569824%, 28.234863%)" fill-opacity="1" d="M 151.296875 30.996094 C 151.296875 30.058594 150.535156 29.296875 149.597656 29.296875 C 148.660156 29.296875 147.902344 30.058594 147.902344 30.996094 C 147.902344 31.933594 148.660156 32.691406 149.597656 32.691406 C 150.535156 32.691406 151.296875 31.933594 151.296875 30.996094 Z M 151.296875 30.996094 "/>
<g fill="rgb(17.64679%, 21.569824%, 28.234863%)" fill-opacity="1">
<use xlink:href="#glyph-2-1" x="153.108815" y="27.485078"/>
</g>
<path fill="none" stroke-width="0.3985" stroke-linecap="butt" stroke-linejoin="miter" stroke="rgb(18.429565%, 52.157593%, 35.293579%)" stroke-opacity="1" stroke-miterlimit="10" d="M 96.379419 56.692853 C 96.379419 58.685188 95.854914 60.638381 94.860704 62.36455 " transform="matrix(0.997965, 0, 0, -0.997965, 36.441696, 200.729837)"/>
<g fill="rgb(44.314575%, 50.193787%, 58.822632%)" fill-opacity="1">
<use xlink:href="#glyph-4-0" x="20.869448" y="249.722941"/>
</g>
<g fill="rgb(44.314575%, 50.193787%, 58.822632%)" fill-opacity="1">
<use xlink:href="#glyph-1-0" x="25.741514" y="246.915665"/>
</g>
<g fill="rgb(44.314575%, 50.193787%, 58.822632%)" fill-opacity="1">
<use xlink:href="#glyph-1-1" x="25.741514" y="252.423435"/>
</g>
<g fill="rgb(44.314575%, 50.193787%, 58.822632%)" fill-opacity="1">
<use xlink:href="#glyph-3-0" x="34.398862" y="249.722941"/>
</g>
<g fill="rgb(44.314575%, 50.193787%, 58.822632%)" fill-opacity="1">
<use xlink:href="#glyph-4-0" x="43.318345" y="249.722941"/>
</g>
<g fill="rgb(44.314575%, 50.193787%, 58.822632%)" fill-opacity="1">
<use xlink:href="#glyph-1-0" x="48.191738" y="246.915665"/>
</g>
<g fill="rgb(44.314575%, 50.193787%, 58.822632%)" fill-opacity="1">
<use xlink:href="#glyph-1-2" x="48.191738" y="252.423435"/>
</g>
<g fill="rgb(44.314575%, 50.193787%, 58.822632%)" fill-opacity="1">
<use xlink:href="#glyph-3-0" x="56.720349" y="249.722941"/>
</g>
<g fill="rgb(44.314575%, 50.193787%, 58.822632%)" fill-opacity="1">
<use xlink:href="#glyph-5-0" x="65.641159" y="238.547727"/>
</g>
<g fill="rgb(44.314575%, 50.193787%, 58.822632%)" fill-opacity="1">
<use xlink:href="#glyph-3-1" x="70.102064" y="244.900773"/>
</g>
<g fill="rgb(44.314575%, 50.193787%, 58.822632%)" fill-opacity="1">
<use xlink:href="#glyph-3-2" x="70.102064" y="254.345516"/>
</g>
<g fill="rgb(44.314575%, 50.193787%, 58.822632%)" fill-opacity="1">
<use xlink:href="#glyph-5-1" x="74.327448" y="238.547727"/>
</g>
<g fill="rgb(18.429565%, 52.157593%, 35.293579%)" fill-opacity="1">
<use xlink:href="#glyph-2-2" x="94.695917" y="249.722941"/>
</g>
<g fill="rgb(18.429565%, 52.157593%, 35.293579%)" fill-opacity="1">
<use xlink:href="#glyph-1-2" x="98.63788" y="251.059216"/>
</g>
<g fill="rgb(18.429565%, 52.157593%, 35.293579%)" fill-opacity="1">
<use xlink:href="#glyph-3-0" x="107.167488" y="249.722941"/>
</g>
<g fill="rgb(18.429565%, 52.157593%, 35.293579%)" fill-opacity="1">
<use xlink:href="#glyph-3-1" x="116.086972" y="249.722941"/>
<use xlink:href="#glyph-3-3" x="120.312869" y="249.722941"/>
</g>
<g fill="rgb(18.429565%, 52.157593%, 35.293579%)" fill-opacity="1">
<use xlink:href="#glyph-6-0" x="124.539068" y="246.915665"/>
</g>
<g fill="rgb(17.64679%, 21.569824%, 28.234863%)" fill-opacity="1">
<use xlink:href="#glyph-4-1" x="144.754849" y="249.722941"/>
</g>
<g fill="rgb(17.64679%, 21.569824%, 28.234863%)" fill-opacity="1">
<use xlink:href="#glyph-1-0" x="148.781638" y="246.915665"/>
</g>
<g fill="rgb(17.64679%, 21.569824%, 28.234863%)" fill-opacity="1">
<use xlink:href="#glyph-1-3" x="148.781638" y="252.423435"/>
</g>
<g fill="rgb(17.64679%, 21.569824%, 28.234863%)" fill-opacity="1">
<use xlink:href="#glyph-3-0" x="157.245381" y="249.722941"/>
</g>
<g fill="rgb(17.64679%, 21.569824%, 28.234863%)" fill-opacity="1">
<use xlink:href="#glyph-5-0" x="166.166191" y="238.547727"/>
</g>
<g fill="rgb(17.64679%, 21.569824%, 28.234863%)" fill-opacity="1">
<use xlink:href="#glyph-3-4" x="170.627096" y="244.900773"/>
</g>
<g fill="rgb(17.64679%, 21.569824%, 28.234863%)" fill-opacity="1">
<use xlink:href="#glyph-3-5" x="170.627096" y="254.345516"/>
</g>
<g fill="rgb(17.64679%, 21.569824%, 28.234863%)" fill-opacity="1">
<use xlink:href="#glyph-5-1" x="174.85248" y="238.547727"/>
</g>
</svg>
